<?xml version="1.0" encoding="UTF-8" standalone="no"?>
<!-- Created with Inkscape (http://www.inkscape.org/) -->

<svg
   xmlns:dc="http://purl.org/dc/elements/1.1/"
   xmlns:cc="http://creativecommons.org/ns#"
   xmlns:rdf="http://www.w3.org/1999/02/22-rdf-syntax-ns#"
   xmlns:svg="http://www.w3.org/2000/svg"
   xmlns="http://www.w3.org/2000/svg"
   xmlns:sodipodi="http://sodipodi.sourceforge.net/DTD/sodipodi-0.dtd"
   xmlns:inkscape="http://www.inkscape.org/namespaces/inkscape"
   width="1299.1194"
   height="400"
   viewBox="0 0 1299.1194 399.99997"
   id="svg4905"
   version="1.1"
   inkscape:version="0.91 r13725"
   sodipodi:docname="logo_text.svg">
  <defs
     id="defs4907" />
  <sodipodi:namedview
     id="base"
     pagecolor="#ffffff"
     bordercolor="#666666"
     borderopacity="1.0"
     inkscape:pageopacity="0.0"
     inkscape:pageshadow="2"
     inkscape:zoom="0.35"
     inkscape:cx="-587.9321"
     inkscape:cy="372.54598"
     inkscape:document-units="px"
     inkscape:current-layer="layer1"
     showgrid="false"
     fit-margin-top="0"
     fit-margin-left="0"
     fit-margin-right="0"
     fit-margin-bottom="0"
     units="px"
     inkscape:window-width="2560"
     inkscape:window-height="1314"
     inkscape:window-x="0"
     inkscape:window-y="60"
     inkscape:window-maximized="1" />
  <metadata
     id="metadata4910">
    <rdf:RDF>
      <cc:Work
         rdf:about="">
        <dc:format>image/svg+xml</dc:format>
        <dc:type
           rdf:resource="http://purl.org/dc/dcmitype/StillImage" />
        <dc:title></dc:title>
      </cc:Work>
    </rdf:RDF>
  </metadata>
  <g
     inkscape:label="Layer 1"
     inkscape:groupmode="layer"
     id="layer1"
     transform="translate(-81.503529,-733.4796)">
    <path
       d="m 81.904806,817.31006 c 1.931528,-0.41722 3.852422,-0.84656 5.760225,-1.28441 l 1.227147,1.98798 c 18.734842,30.31608 34.505312,61.08375 47.901662,91.82819 -17.27086,4.35718 -35.62693,8.21304 -55.020339,11.58589 l 0.131321,-104.11765 z m 19.116484,-4.57316 c 14.13305,-3.72627 27.50854,-8.10309 39.87285,-13.3471 l 1.75277,1.95525 c 25.59009,28.64553 47.37603,56.53775 66.20455,84.67278 -17.85089,7.69045 -37.6284,14.48916 -59.22821,20.44295 -13.56447,-31.32757 -29.56033,-62.72518 -48.60196,-93.72388 z m 52.29361,-19.09015 c 11.1793,-5.63276 21.34417,-12.13664 30.27779,-19.69586 l 0.75674,0.62994 c 31.15316,25.99096 58.12584,51.92465 81.6666,78.76251 -7.7842,5.99698 -16.31696,11.6484 -25.56964,16.96767 -6.18073,3.55676 -12.6887,6.96168 -19.51163,10.22295 -19.20893,-28.90503 -41.4571,-57.52175 -67.61986,-86.88721 z m 39.87408,-28.73584 c 5.23582,-5.50972 9.89489,-11.51063 13.92811,-18.05116 l 0.0573,0.036 c 35.68132,22.40376 66.76903,45.31868 94.0894,69.83281 -6.89247,10.10351 -15.29024,19.51588 -25.14014,28.262 -23.92117,-27.30057 -51.31517,-53.66393 -82.93464,-80.0803 z m 20.12929,-29.63542 c 0.26997,-0.59329 0.54403,-1.1905 0.80992,-1.79589 39.63274,12.23481 74.12373,28.24891 104.18064,47.87933 l -0.56858,1.77527 c -2.48293,7.72677 -5.66124,15.13055 -9.52266,22.22346 -27.43899,-24.40778 -58.5267,-47.24089 -94.06077,-69.55466 l -0.83855,-0.52751 z m 116.26803,53.7693 c 27.36537,19.43407 50.84477,42.0872 71.03542,67.82357 l -1.4194,2.81393 c -4.91676,9.71932 -10.45529,18.95826 -16.57466,27.74954 -11.55153,-16.04715 -23.98662,-31.26965 -37.44432,-45.8547 -8.57776,-9.29588 -17.56865,-18.3316 -27.0095,-27.1507 4.61816,-8.06251 8.4305,-16.52164 11.41246,-25.38164 z m 79.80952,79.48604 c 16.53378,22.91819 30.70729,48.10021 42.88877,75.46656 -5.42399,9.32795 -12.19375,18.70106 -20.20701,28.0277 -12.44736,-26.33915 -26.15459,-50.57349 -41.47346,-73.17622 6.93746,-9.56977 13.21636,-19.66346 18.7917,-30.31804 z m 13.13456,113.96853 c -11.88696,12.32709 -25.94188,24.50924 -41.99705,36.33334 -9.98897,-25.74814 -21.11919,-49.9298 -33.69744,-72.94976 12.96276,-11.07802 24.79245,-23.06021 35.34591,-36.06174 14.46397,21.74831 27.439,45.04478 39.24827,70.32269 l 1.10034,2.35547 z m -53.00046,44.17234 c -18.79988,12.9377 -40.02952,25.3686 -63.42302,37.0075 -7.911,-25.4376 -16.54602,-49.578 -26.27729,-72.85226 l 0.65038,-0.34851 c 20.21929,-10.81558 38.99463,-22.78959 56.0356,-36.15239 12.10376,22.36188 22.81265,45.83866 32.42939,70.81646 l 0.58494,1.5292 z m -75.35906,42.7869 c -25.86825,12.1899 -54.20715,23.4021 -84.70992,33.2834 -4.97403,-24.1325 -10.72935,-49.022 -17.61773,-74.3814 26.93586,-9.2707 52.51777,-19.6586 76.29987,-31.51279 9.52675,22.88579 17.98997,46.63939 25.74553,71.68759 l 0.28208,0.9232 z m -97.26772,37.246 c -35.79177,10.95 -74.41006,20.0591 -115.399611,26.775 l 0.09284,-74.0378 1.498755,-0.3499 c 33.308846,-7.8377 65.613856,-16.5268 96.296606,-26.5544 6.79839,25.0861 12.47599,49.6863 17.38048,73.5263 l 0.1309,0.6408 z m -115.289168,-60.7487 0.141924,-111.20694 1.112203,-0.1898 c 20.871311,-3.6029 40.598091,-7.76374 59.125141,-12.50642 5.87064,14.11873 11.26027,28.21946 16.21794,42.25507 6.60614,18.6883 12.44736,37.25059 17.66682,55.58289 -29.98901,9.8155 -61.6154,18.3496 -94.264044,26.0655 z M 311.0114,825.69557 c -7.33016,10.45954 -16.13289,20.19719 -26.35911,29.24273 7.86601,9.38391 15.33933,18.88824 22.45269,28.55357 12.05467,16.38388 23.06626,33.23178 33.17795,50.73155 12.59461,-10.96153 24.02753,-22.82722 34.14331,-35.70898 -11.92787,-16.87801 -24.83745,-32.82437 -38.89237,-48.05342 -7.80874,-8.46404 -15.97335,-16.70719 -24.52247,-24.76545 z m -36.45852,37.60074 c -8.40187,6.50683 -17.60546,12.62325 -27.58216,18.3627 -6.00075,3.44811 -12.27965,6.75912 -18.84079,9.93694 6.68385,10.50273 12.9873,21.0611 18.94305,31.7255 10.11577,18.10188 19.23756,36.49762 27.57398,55.42873 20.07202,-10.75799 38.64693,-22.68748 55.41384,-36.02149 -10.18122,-17.77759 -21.30735,-34.87158 -33.52973,-51.4842 -6.96201,-9.45917 -14.2758,-18.76192 -21.97819,-27.94818 z m -58.42854,33.83161 c -18.50536,8.11226 -38.99053,15.26571 -61.34914,21.50681 5.71032,13.8085 10.96251,27.59181 15.80974,41.30738 6.6225,18.73837 12.48826,37.36252 17.73636,55.76479 26.42046,-9.1139 51.45834,-19.30643 74.66777,-30.91818 -8.27097,-18.83719 -17.31913,-37.12298 -27.36537,-55.10346 -6.11528,-10.94189 -12.5987,-21.77677 -19.49936,-32.55734"
       style="fill:#910306;fill-opacity:1;fill-rule:evenodd;stroke:none"
       id="path14"
       inkscape:connector-curvature="0" />
    <path
       d="m 1279.3527,992.56065 0,-66.84774 c 3.4523,-0.30106 21.0987,0.36127 26.3345,0.358 8.5532,0 20.1825,1.62507 27.6395,6.06243 11.0075,6.55263 15.4334,19.23151 14.8198,32.23795 -0.36,7.63122 -3.7878,14.81052 -7.6042,19.25573 -1.2108,1.41237 -2.0534,2.91276 -4.0537,4.20731 -0.6259,0.40414 -0.5154,0.40414 -1.0103,0.83872 -0.7159,0.62502 -1.2926,0.99382 -1.9553,1.47814 -7.0438,5.1419 -17.135,7.5674 -26.0114,7.76702 -1.1658,0.0327 -1.8816,0.3076 -3.1865,0.18979 -1.1699,-0.10798 -1.9021,-0.17016 -3.2437,-0.1767 -5.7349,-0.0327 -11.6088,-1.84072 -16.771,-3.45925 -1.0104,-0.31742 -4.2869,-1.46701 -4.9577,-1.91271 z m -159.4268,-9.24974 c -3.6201,0 -19.7284,0.24216 -22.7595,-0.60703 l 0,-56.62806 c 6.4998,0 15.1103,-1.11065 21.2419,-0.30761 1.7426,0.22907 3.4524,0 5.1745,0.11454 10.623,0.76541 21.1887,1.54195 28.9811,9.30406 1.853,1.84563 3.2724,3.6546 4.5445,6.49078 5.5672,12.41349 1.2599,27.25149 -9.9317,35.02015 -0.7485,0.519 -1.7261,1.01149 -2.6015,1.5354 -0.9163,0.55434 -1.8203,0.84853 -2.8143,1.28932 -2.2825,1.00823 -4.0209,1.44444 -6.6102,1.9654 -5.3749,1.08316 -6.4098,0.93001 -11.0075,1.51315 -0.8426,0.10472 -3.3951,0.31088 -4.2132,0.31088 z m -62.7645,119.09869 50.2435,0.033 c -0.5645,-0.679 -1.2312,-0.9271 -1.9266,-1.4526 -0.724,-0.5498 -1.2517,-1.037 -1.8898,-1.5547 -2.4298,-1.9766 -4.1519,-5.0539 -5.0395,-8.0419 -1.898,-6.374 -1.4399,-12.9315 -1.4399,-19.5516 l 0,-68.1083 c 3.7796,0.4444 7.7229,0.2651 11.3225,0.8869 9.1832,1.5851 16.9101,6.8818 22.7186,13.7466 l 58.449,80.9197 c 0.6585,1.0609 1.7548,3.1716 3.1128,3.1716 l 96.9732,-0.039 c -0.7772,-0.9761 -2.2497,-1.7366 -3.2478,-2.6107 -0.3682,-0.324 -0.859,-0.588 -1.174,-0.8803 -0.9817,-0.9156 -2.6261,-3.2822 -3.2765,-4.5316 -1.9511,-3.7694 -2.6342,-8.9208 -2.6342,-13.1389 0,-22.4709 -0.1964,-44.9493 0.01,-67.4182 0.9817,0.062 2.6956,0.7861 3.8082,1.1104 1.2845,0.3756 2.5321,0.7434 3.8942,1.0929 23.8189,6.1168 53.8472,4.2057 72.8393,-11.6847 2.4011,-2.0118 2.7406,-2.0822 5.3831,-4.70241 1.6975,-1.68135 3.166,-3.7266 4.5854,-5.5287 5.5958,-7.12171 10.7498,-20.18902 10.7498,-29.97117 0,-7.92017 0.069,-12.58267 -2.1884,-20.44099 -1.9389,-6.72869 -5.4608,-14.32162 -10.1239,-19.68539 -2.9943,-3.44321 -5.8699,-6.32913 -9.5391,-9.0678 -2.0656,-1.54031 -4.4831,-3.00896 -6.8638,-4.14808 -8.365,-4.00737 -21.1928,-6.86907 -30.3882,-6.85009 l -82.3334,-0.32397 c 1.4358,0.38974 5.7144,4.69915 6.6021,5.83827 4.4259,5.69331 3.935,14.85731 3.935,21.84124 l 0,141.44119 c 0,8.5711 0.3191,16.506 -3.0842,22.7039 -0.9981,1.8201 -4.4995,5.4534 -6.418,6.2012 -1.0676,0.4172 -7.4324,-3.0198 -8.7004,-3.6445 -1.0799,-0.5304 -3.1334,-1.7848 -4.0087,-2.4258 -1.1904,-0.8708 -2.3971,-1.8771 -3.5792,-2.8473 -5.3258,-4.3651 -8.9745,-10.2547 -13.2205,-15.7147 l -10.7989,-14.9113 c -3.0883,-4.3922 -6.5366,-8.6234 -9.4776,-13.0235 l -4.1314,-5.5221 c -0.5481,-0.8011 -0.8304,-1.2835 -1.309,-1.9036 -0.998,-1.2877 -1.8284,-2.3996 -2.7774,-3.6539 l -9.4899,-13.0114 c -2.3725,-3.0871 -4.2214,-6.3003 -6.6962,-9.3698 -4.2991,-5.3258 -8.8068,-10.5682 -14.4926,-14.4463 -0.6176,-0.4235 -1.3785,-0.826 -1.8284,-1.42677 5.3503,-1.49548 6.7738,-1.68233 12.4801,-3.66867 3.8859,-1.3515 7.281,-3.44616 10.852,-5.45017 5.9967,-3.365 12.4924,-10.72493 15.3394,-17.07468 4.9944,-11.13693 5.6285,-23.87471 2.2825,-35.59804 -1.0595,-3.70402 -2.3889,-6.43811 -3.9719,-9.56651 -1.448,-2.86171 -3.4933,-5.39454 -5.5631,-7.78175 -3.8164,-4.39743 -9.8335,-9.07892 -15.5356,-11.32541 -7.7515,-3.05347 -13.3882,-3.98152 -21.8596,-5.04439 l -12.7828,-0.69833 -73.9887,0 c 6.7452,4.83823 9.2608,8.42052 10.1526,17.1686 0.5235,5.1743 0.1636,20.83956 0.1636,27.12222 l 0,123.3007 c 0,3.9053 0.3681,10.0509 -0.057,13.676 -0.4745,4.0954 -1.0717,7.8056 -3.0106,10.7586 -3.3869,5.1531 -5.6162,4.9037 -7.0479,6.8305 z m -408.72564,-96.2466 -0.6422,9.1686 c -0.33951,2.8011 -0.72811,5.5496 -1.34986,8.2579 -2.34794,10.2497 -4.49136,16.05 -9.24042,24.733 -0.60539,1.0992 -1.25987,1.9441 -1.82026,3.0037 -1.12489,2.1238 -2.78154,3.8255 -3.9596,5.6806 -1.16988,1.8342 -3.1824,3.6045 -4.57316,5.3032 -4.83905,5.9136 -16.03062,13.0703 -22.82902,15.9781 -15.33524,6.5641 -33.38656,7.5965 -49.76078,3.5699 -6.38526,-1.5708 -14.87711,-5.014 -20.49744,-8.6715 -4.40137,-2.8667 -7.10109,-4.7934 -10.80707,-8.4814 l -4.84723,-5.0189 c -2.86743,-3.0358 -3.99231,-5.0509 -6.21754,-8.2579 -2.7079,-3.9 -6.3239,-11.8221 -7.90282,-16.429 -1.7221,-5.014 -2.91652,-10.0904 -3.79598,-15.6954 -1.68937,-10.7488 -1.21896,-24.9922 1.01444,-35.98056 1.82845,-8.99089 5.61215,-20.42364 10.70072,-28.14288 0.55222,-0.83577 1.22715,-2.09793 1.86526,-2.95235 0.76493,-1.0151 1.34987,-1.82501 2.07797,-2.75666 l 3.35829,-3.98839 c 0.75265,-0.71077 0.5154,-0.752 1.0758,-1.45524 1.30078,-1.64437 4.50772,-4.16575 6.25845,-5.67236 4.60998,-3.97399 11.37565,-8.07593 16.77509,-10.10023 14.09991,-5.28557 26.8786,-6.73654 42.08703,-4.55222 4.75315,0.68229 7.3547,1.42709 11.81333,2.68139 1.21079,0.34197 2.2948,0.83217 3.5833,1.26053 4.92904,1.62965 8.81091,3.93374 13.13456,6.34975 2.05343,1.14566 3.66917,2.70037 5.65715,4.00409 2.12705,1.39371 3.41146,2.9805 5.18673,4.44554 1.57481,1.29751 5.94757,6.02873 7.03155,7.66493 l 4.0005,5.64978 c 4.47909,6.99375 8.25052,16.16397 10.16486,24.26837 l 0.33133,1.45196 c 0.87946,4.0365 2.05752,11.3961 2.09842,15.27061 0.0327,3.00242 0.60131,6.50514 0.0295,9.41304 z m -180.44779,-6.88675 c 0,8.98175 -0.25361,12.75255 1.12898,21.68775 1.48893,9.6333 4.27456,19.6389 8.56139,28.175 3.40737,6.7813 6.61432,12.7652 11.62925,18.6722 l 2.74472,3.4675 c 1.9798,2.2834 4.02504,4.1975 6.10304,6.2892 0.99808,1.0033 2.00434,1.9572 3.08011,2.8921 17.35185,15.0566 40.30767,23.987 63.26349,25.4297 12.4392,0.7812 24.41612,-0.033 36.58532,-2.9801 8.13598,-1.972 11.67835,-3.3938 18.99214,-6.5032 6.9252,-2.9432 14.68485,-7.5436 20.72241,-12.3481 3.97596,-3.1641 5.1622,-3.8172 9.48584,-8.1842 4.0455,-4.0921 8.03372,-8.4863 11.60472,-13.6554 11.00341,-15.9303 16.80782,-32.449 18.1904,-51.8949 l 0.38451,-9.4398 -0.91627,-11.94229 c -2.05343,-17.37836 -9.6781,-36.87199 -20.80832,-49.90264 -3.03514,-3.55022 -5.12129,-6.63249 -9.20768,-10.09991 -2.27432,-1.93038 -2.62201,-2.53578 -5.19902,-4.43409 -3.73461,-2.74521 -4.37682,-3.64937 -9.24859,-6.83079 -7.02746,-4.59509 -13.68677,-7.65837 -21.52006,-10.6176 -4.78587,-1.80701 -10.03805,-3.14476 -15.06936,-4.25214 -20.6815,-4.55059 -47.82189,-3.06459 -67.32943,5.05421 l -6.68795,2.93697 c -0.97762,0.39759 -1.31714,0.51769 -2.20068,1.01117 -9.06861,5.05878 -9.48175,5.21553 -17.52365,11.41508 -6.88838,5.31141 -11.92378,11.18175 -17.23732,18.12609 -0.87536,1.14403 -1.61983,2.31031 -2.60564,3.81561 l -4.74906,8.1044 c -0.40905,0.73367 -0.70765,1.22551 -1.1617,2.07732 -0.44995,0.84656 -0.5563,1.3119 -0.98171,2.21606 -5.83713,12.46781 -7.89464,22.04708 -9.54311,35.40661 -0.2006,1.61067 -0.48677,4.67363 -0.48677,6.30819 z m 262.55207,-5.99993 c 1.63211,-15.07198 5.23174,-26.53516 13.67041,-39.07496 l 9.48585,-10.95662 c 1.25987,-1.43821 0.87536,-0.5959 1.88162,-1.56747 2.61382,-2.52302 7.80874,-6.22671 11.18749,-8.09786 6.61841,-3.67359 12.67233,-6.1341 20.42789,-8.06121 2.57701,-0.6391 5.32176,-1.1617 8.07463,-1.53868 l 8.49185,-0.94735 11.94013,0.002 c 1.69347,0 4.6018,0.45356 6.42616,0.64041 7.0111,0.716 16.29654,3.25177 22.84132,5.71261 4.53223,1.70492 5.73896,2.59501 9.75578,4.4498 1.34171,0.61979 3.2683,1.84235 4.45867,2.15552 0.14725,-0.93983 -2.45842,-20.58988 -2.7529,-23.5347 -1.07989,-10.73606 -0.42954,-8.60934 -4.05368,-9.28999 -5.17446,-0.97158 -14.33719,-2.32013 -19.44212,-2.67649 l -8.05005,-0.5959 -21.58144,0.41232 c -1.81618,0.0949 -4.18863,0.38483 -5.98439,0.61194 -14.0181,1.77199 -23.97435,4.09703 -36.76122,9.24973 l -4.47499,1.93857 c -1.61571,0.73465 -2.93288,1.43003 -4.49136,2.16501 -1.58301,0.74774 -2.54837,1.36753 -4.18044,2.23668 -10.08715,5.36738 -21.39329,15.13481 -28.4698,23.89434 -3.76325,4.65301 -7.33834,9.8908 -10.34079,15.83477 -4.75311,9.41631 -7.98463,19.05251 -9.60852,29.5811 -1.34989,8.78146 -1.808,18.53651 -0.91218,27.28001 0.40493,3.9818 0.65039,7.0366 1.43576,10.9896 2.52792,12.6763 7.14609,24.7845 14.41079,35.4054 5.63669,8.2385 8.81091,11.0158 15.65021,17.6483 2.71199,2.6316 6.03347,5.0588 9.26905,7.2575 5.2031,3.5358 7.73511,4.9403 13.13864,7.7575 14.30853,7.4663 32.84662,11.6245 48.85679,13.2925 12.89731,1.342 33.86925,0.7176 47.04471,-1.1601 l 14.32489,-2.2481 c 1.51757,-5.6259 2.81425,-11.2345 4.25002,-16.8286 l 4.16411,-16.8623 c -0.65857,0.2029 -0.87536,0.4381 -1.43167,0.7431 -5.1581,2.8379 -15.92427,7.5259 -21.45461,9.2995 -7.28925,2.3411 -16.02653,4.4213 -24.00298,4.7728 -7.15018,0.3174 -12.15284,0.3043 -19.33165,-0.5432 -10.39802,-1.2255 -14.98346,-2.4527 -24.87426,-5.8448 -2.47883,-0.8486 -4.8595,-2.0214 -7.23607,-3.1016 -1.21897,-0.5514 -2.1516,-1.2239 -3.30103,-1.7543 -1.17806,-0.5433 -2.10251,-1.2177 -3.19058,-1.8633 -7.28516,-4.3202 -13.91996,-10.2423 -19.2376,-16.8061 -0.84673,-1.0435 -1.30486,-1.8439 -2.11065,-2.9271 -5.77172,-7.7831 -10.48396,-18.6422 -12.42282,-28.461 -0.82628,-4.1752 -1.65255,-9.2739 -1.84072,-13.6344 l -0.20452,-5.7411 0.55631,-9.21341 z m 179.65833,7.60768 c 0,-10.39739 2.64246,-22.32689 6.20527,-31.78443 2.96973,-7.88548 8.72505,-17.04588 14.81169,-23.06512 0.85897,-0.85311 1.55845,-1.54653 2.41748,-2.40618 8.95405,-8.95752 21.64686,-15.21466 33.99193,-18.15784 2.57291,-0.61358 5.08038,-1.07237 7.81695,-1.50694 l 8.56136,-0.93132 c 8.72095,0 9.56765,-0.22907 18.14135,0.62142 8.59,0.85312 17.5113,3.64283 25.5164,6.69302 2.078,0.7929 11.0812,5.63768 11.7479,5.6295 l -3.7428,-31.55403 c -0.2739,-1.28637 -0.2084,-0.69996 -3.2437,-1.28474 -8.4469,-1.62212 -17.1106,-2.68598 -25.6965,-3.03776 -0.9326,-0.0393 -0.9817,-0.20616 -1.8325,-0.20289 -12.63555,0 -17.28643,-0.25852 -29.34519,1.23206 -7.15426,0.88682 -18.29263,3.1428 -25.01333,5.44362 -3.80416,1.30241 -7.3138,2.49454 -11.06068,4.09212 -3.37466,1.43822 -7.24017,3.18928 -10.3653,5.01592 -14.25535,8.3374 -20.07203,13.06077 -31.08771,26.08325 -3.30921,3.90985 -9.51857,14.26893 -11.3961,18.91212 -2.14342,5.316 -3.43601,7.81022 -4.96994,13.87396 -3.37057,13.30685 -4.74906,27.07086 -3.15786,41.32346 2.00025,17.9022 8.42231,34.7563 19.48708,48.9834 l 3.47692,4.0954 c 0.6872,0.8374 1.21487,1.2733 1.92253,1.988 l 3.89823,3.8987 c 0.67903,0.642 1.13716,1.2239 1.853,1.8247 1.4153,1.1937 2.62609,2.3201 4.09048,3.4962 l 6.60614,4.8749 c 0.66675,0.4728 1.57075,0.9316 2.2784,1.3917 11.46155,7.4761 24.4284,12.3291 37.65704,15.5789 22.21135,5.4567 46.80339,5.0221 69.53829,2.1172 4.5773,-0.5847 9.3468,-1.6443 13.1305,-2.0946 0.5154,-2.6971 1.4358,-5.8386 2.0902,-8.4398 l 6.3157,-25.2351 -4.9331,2.4975 c -1.5871,0.8024 -3.3296,1.5596 -4.974,2.3522 -9.899,4.7613 -23.0376,8.9238 -34.2088,9.7373 -19.20071,1.3977 -35.51361,-1.3073 -50.23524,-7.4826 -3.80419,-1.5966 -5.02315,-2.5054 -7.41197,-3.6082 l -4.65497,-2.6765 c -5.31764,-3.4435 -9.54723,-7.2876 -14.00177,-11.7249 -3.14147,-3.1317 -2.93288,-3.3218 -4.97813,-6.0382 -7.63285,-10.1193 -11.74785,-20.7225 -13.98538,-33.5659 -0.99399,-5.714 -1.25987,-11.26 -1.25987,-16.9579"
       style="fill:#910306;fill-opacity:1;fill-rule:evenodd;stroke:none"
       id="path16"
       inkscape:connector-curvature="0" />
    <path
       d="m 84.189753,1126.1789 0.330511,0.5226 c 0.02422,0.056 0.05442,0.1243 0.07854,0.1898 0.180407,0.4954 0.229886,1.8568 0.773103,2.1284 5.148288,0.4342 8.035764,-0.5449 12.985663,-0.6234 3.2822,-0.052 6.96692,-0.049 10.26467,-0.556 1.20792,-0.1865 1.90003,-0.6296 3.21021,-0.7461 l 1.27337,-0.1669 0.52236,0.046 c 0.3661,-0.4346 -0.66757,-0.3963 2.29149,-0.5432 l 7.65535,-0.609 0.62134,0.1145 c 0.32603,-0.5003 -0.47286,-0.3547 1.04349,-0.7461 0.91422,-0.2356 0.72729,-0.1374 1.34372,0.036 0.78128,-0.717 3.0151,-0.9856 4.06676,-1.0589 1.43004,-0.098 3.13332,-0.502 4.48523,-0.1407 0.22334,-0.2291 -0.33093,-0.108 0.64057,-0.4634 l -51.688637,0 0.102263,2.6153"
       style="fill:#910406;fill-opacity:1;fill-rule:evenodd;stroke:none"
       id="path102"
       inkscape:connector-curvature="0" />
    <path
       d="m 90.657632,1129.6607 1.527798,0 c 1.508163,-1.0802 8.00018,-0.8325 10.20863,-0.8934 1.73028,-0.049 5.70582,-0.2748 7.36738,-0.7605 0.93631,-0.2749 1.48444,-0.3108 2.07101,-0.9153 -1.31018,0.1178 -2.00229,0.5606 -3.21021,0.7461 -3.29775,0.5079 -6.98247,0.5046 -10.264673,0.5557 -4.949899,0.079 -7.837375,1.058 -12.985663,0.6234 -0.543217,-0.2716 -0.592712,-1.6329 -0.773103,-2.128 -0.02421,-0.066 -0.05442,-0.1342 -0.07854,-0.1898 l -0.330511,-0.523 c 0.0589,4.7443 2.706676,3.1958 6.467879,3.4818"
       style="fill:#a52d31;fill-opacity:1;fill-rule:evenodd;stroke:none"
       id="path108"
       inkscape:connector-curvature="0" />
    <path
       d="m 105.02056,1129.0344 c -2.21459,0.1211 -4.44677,0.1472 -6.662993,0.2029 -2.236679,0.056 -4.108077,0.3207 -6.172137,0.4283 l -1.527798,0 c -0.380006,0.3043 0.01931,0.2094 -0.832414,0.3802 -0.01604,0 -0.66634,0.036 -0.723607,0.036 -4.57153,0.1571 -5.436259,-0.1211 -5.463256,-6.5143 l -0.238067,0 c 0,7.4476 0.709291,7.2925 8.081987,6.7669 1.182151,-0.082 2.068969,-0.2748 3.032688,-0.4604 1.843992,-0.3511 8.812137,-0.1047 9.759497,-0.3996 0.75919,-0.2356 0.32109,0.1309 0.7461,-0.4358"
       style="fill:#ecd1d2;fill-opacity:1;fill-rule:evenodd;stroke:none"
       id="path110"
       inkscape:connector-curvature="0" />
    <path
       d="m 92.18543,1129.664 c 2.06406,-0.108 3.935458,-0.374 6.172137,-0.4284 2.216223,-0.056 4.448403,-0.082 6.662993,-0.2029 1.17152,0.1277 3.23885,-0.075 4.39278,-0.358 1.17765,-0.2879 2.63795,-1.1103 3.68471,-1.0802 l 0.008,-0.6679 -1.27336,0.1669 c -0.58658,0.6038 -1.13471,0.6404 -2.07102,0.9153 -1.66156,0.4843 -5.6371,0.7127 -7.36738,0.7605 -2.20845,0.062 -8.700465,-0.1865 -10.208628,0.8934"
       style="fill:#c37e80;fill-opacity:1;fill-rule:evenodd;stroke:none"
       id="path112"
       inkscape:connector-curvature="0" />
    <path
       d="m 90.657632,1129.6607 c -3.761203,-0.2847 -6.408976,1.2622 -6.467879,-3.4818 l -0.102263,-2.6156 -0.449135,0 c 0.02683,6.3949 0.891726,6.6714 5.463256,6.5147 0.05727,0 0.707654,-0.033 0.723607,-0.036 0.85164,-0.1702 0.452408,-0.075 0.832414,-0.3806"
       style="fill:#c37e80;fill-opacity:1;fill-rule:evenodd;stroke:none"
       id="path114"
       inkscape:connector-curvature="0" />
    <path
       d="m 113.62818,1126.9731 c 2.87643,0.1538 6.58977,-0.4683 9.41794,-0.7382 1.05289,-0.1604 0.12762,0.095 0.5289,-0.414 l -7.65535,0.609 c -2.95906,0.1472 -1.92539,0.108 -2.29149,0.5432"
       style="fill:#b44e51;fill-opacity:1;fill-rule:evenodd;stroke:none"
       id="path116"
       inkscape:connector-curvature="0" />
    <path
       d="m 126.58357,1125.225 c 1.27214,0.2225 2.7979,-0.4104 4.25043,-0.5416 0.89336,-0.078 3.62867,0 4.30156,-0.6564 -1.35191,-0.3629 -3.05519,0.043 -4.48523,0.1407 -1.05166,0.072 -3.28548,0.342 -4.06676,1.0589"
       style="fill:#d08f91;fill-opacity:1;fill-rule:evenodd;stroke:none"
       id="path118"
       inkscape:connector-curvature="0" />
    <path
       d="m 113.62818,1126.9731 -0.52236,-0.046 -0.008,0.6682 7.58622,-0.5962 c 1.82313,-0.1898 1.74991,-0.1145 2.36185,-0.7651 -2.82817,0.2683 -6.54151,0.8917 -9.41794,0.7383"
       style="fill:#e2b9ba;fill-opacity:1;fill-rule:evenodd;stroke:none"
       id="path120"
       inkscape:connector-curvature="0" />
    <path
       d="m 124.19636,1125.9348 c 0.49086,-0.065 0.93509,-0.1309 1.38545,-0.2455 0.0434,0 0.53995,-0.1603 0.55467,-0.1668 0.40087,-0.18 0.31618,-0.1833 0.44709,-0.2978 -0.61643,-0.1735 -0.4295,-0.2716 -1.34372,-0.036 -1.51635,0.3914 -0.71748,0.2454 -1.04349,0.7461"
       style="fill:#c47275;fill-opacity:1;fill-rule:evenodd;stroke:none"
       id="path122"
       inkscape:connector-curvature="0" />
    <path
       d="m 135.13556,1124.027 c 0.76205,0.1407 0.46631,0.1832 1.31631,-0.033 0.0193,0 0.58658,-0.1767 0.58658,-0.1767 0.46673,-0.1832 0.31006,-0.1374 0.51295,-0.2683 l -1.77527,0 c -0.9715,0.356 -0.41723,0.2323 -0.64057,0.4634"
       style="fill:#d08f91;fill-opacity:1;fill-rule:evenodd;stroke:none"
       id="path124"
       inkscape:connector-curvature="0" />
  </g>
</svg>
