<?xml version="1.0" encoding="UTF-8" standalone="no"?>
<!-- Generator: Adobe Illustrator 24.1.0, SVG Export Plug-In . SVG Version: 6.00 Build 0)  -->

<svg
   xmlns:dc="http://purl.org/dc/elements/1.1/"
   xmlns:cc="http://creativecommons.org/ns#"
   xmlns:rdf="http://www.w3.org/1999/02/22-rdf-syntax-ns#"
   xmlns:svg="http://www.w3.org/2000/svg"
   xmlns="http://www.w3.org/2000/svg"
   xmlns:sodipodi="http://sodipodi.sourceforge.net/DTD/sodipodi-0.dtd"
   xmlns:inkscape="http://www.inkscape.org/namespaces/inkscape"
   version="1.2"
   id="Layer_1"
   x="0px"
   y="0px"
   viewBox="0 0 64 64"
   xml:space="preserve"
   inkscape:version="0.91 r13725"
   sodipodi:docname="ID_Logo.svg"><metadata
     id="metadata11"><rdf:RDF><cc:Work
         rdf:about=""><dc:format>image/svg+xml</dc:format><dc:type
           rdf:resource="http://purl.org/dc/dcmitype/StillImage" /></cc:Work></rdf:RDF></metadata><defs
     id="defs9" /><sodipodi:namedview
     pagecolor="#ffffff"
     bordercolor="#666666"
     borderopacity="1"
     objecttolerance="10"
     gridtolerance="10"
     guidetolerance="10"
     inkscape:pageopacity="0"
     inkscape:pageshadow="2"
     inkscape:window-width="2560"
     inkscape:window-height="1314"
     id="namedview7"
     showgrid="false"
     inkscape:zoom="11.313709"
     inkscape:cx="31.627023"
     inkscape:cy="45.263107"
     inkscape:window-x="0"
     inkscape:window-y="60"
     inkscape:window-maximized="1"
     inkscape:current-layer="Layer_1" /><path fill="#777"
     d="M20.7,3.37v57.25C9.29,56.13,1.21,44.98,1.21,31.98C1.21,18.99,9.29,7.87,20.7,3.37z"
     id="path3" /><path fill="#777"
     d="m 32.02,1.21 c -2.42,0 -4.78,0.29 -7.05,0.81 -2.3e-4,19.988003 3.37e-4,39.976005 -3.8e-5,59.964008 C 27.67064,62.707398 29.6,62.8 32.02,62.8 49.03,62.8 62.8,49 62.8,31.99 62.79,14.98 49.02,1.21 32.02,1.21 Z m 0.51,54.05 c -1.65,0 -3.3,-0.16 -4.91,-0.52 l 0,-4.36 c 1.58,0.42 3.23,0.61 4.91,0.61 10.44,0 18.94,-8.5 18.94,-18.94 0,-9.73 -7.37,-17.75 -16.81,-18.82 l 0,34.98 c -0.71,0.06 -1.42,0.13 -2.13,0.13 -0.74,0 -1.45,-0.06 -2.13,-0.13 l 0,-37.24 c 0.02212,-1.61954 1.321338,-2.142392 2.55,-2.0999963 12.61,0.19 22.79,10.5100003 22.79,23.1800003 0.01,12.8 -10.4,23.21 -23.21,23.209996 z"
     id="path5"
     inkscape:connector-curvature="0"
     sodipodi:nodetypes="sccscssccssccsccccs" /></svg>
