<?xml version="1.0" encoding="UTF-8" standalone="no"?>
<!-- Created with Inkscape (http://www.inkscape.org/) -->

<svg
   xmlns:dc="http://purl.org/dc/elements/1.1/"
   xmlns:cc="http://creativecommons.org/ns#"
   xmlns:rdf="http://www.w3.org/1999/02/22-rdf-syntax-ns#"
   xmlns:svg="http://www.w3.org/2000/svg"
   xmlns="http://www.w3.org/2000/svg"
   xmlns:sodipodi="http://sodipodi.sourceforge.net/DTD/sodipodi-0.dtd"
   xmlns:inkscape="http://www.inkscape.org/namespaces/inkscape"
   width="525.22217mm"
   height="112.88889mm"
   viewBox="0 0 1861.0234 399.99999"
   id="svg5605"
   version="1.1"
   inkscape:version="0.91 r13725"
   sodipodi:docname="logo_full.svg">
  <defs
     id="defs5607" />
  <sodipodi:namedview
     id="base"
     pagecolor="#ffffff"
     bordercolor="#666666"
     borderopacity="1.0"
     inkscape:pageopacity="0.0"
     inkscape:pageshadow="2"
     inkscape:zoom="0.7"
     inkscape:cx="1000.3852"
     inkscape:cy="-46.603515"
     inkscape:document-units="px"
     inkscape:current-layer="layer1"
     showgrid="false"
     fit-margin-top="0"
     fit-margin-left="0"
     fit-margin-right="0"
     fit-margin-bottom="0"
     inkscape:window-width="2560"
     inkscape:window-height="1314"
     inkscape:window-x="0"
     inkscape:window-y="60"
     inkscape:window-maximized="1" />
  <metadata
     id="metadata5610">
    <rdf:RDF>
      <cc:Work
         rdf:about="">
        <dc:format>image/svg+xml</dc:format>
        <dc:type
           rdf:resource="http://purl.org/dc/dcmitype/StillImage" />
        <dc:title></dc:title>
      </cc:Work>
    </rdf:RDF>
  </metadata>
  <g
     inkscape:label="Layer 1"
     inkscape:groupmode="layer"
     id="layer1"
     transform="translate(2253.078,187.04931)">
    <path
       d="m -1988.0902,-121.13639 c 1.5186,-0.32805 3.0289,-0.66575 4.529,-1.00989 l 0.9648,1.56308 c 14.7308,23.836266 27.1304,48.027928 37.6636,72.20124 -13.5796,3.425902 -28.0124,6.457498 -43.2605,9.109581 l 0.1029,-81.864011 z m 15.0305,-3.59572 c 11.1124,-2.92996 21.6291,-6.3713 31.3508,-10.49448 l 1.3781,1.53735 c 20.1206,22.52309 37.2501,44.453755 52.0542,66.575145 -14.0356,6.046776 -29.5858,11.392444 -46.5689,16.073619 -10.6654,-24.631634 -23.2424,-49.318574 -38.2142,-73.691634 z m 41.1168,-15.01003 c 8.7897,-4.42871 16.7821,-9.54248 23.8063,-15.48603 l 0.5949,0.4953 c 24.4946,20.43577 45.7023,40.82651 64.2117,61.928039 -6.1206,4.71528 -12.8296,9.15879 -20.1047,13.341144 -4.8595,2.796483 -9.9766,5.473653 -15.3413,8.037947 -15.1033,-22.727002 -32.5961,-45.22726 -53.1669,-68.3164 z m 31.3515,-22.59384 c 4.1168,-4.33223 7.7799,-9.05041 10.9511,-14.19312 l 0.044,0.029 c 28.0551,17.61515 52.4983,35.63234 73.9792,54.90706 -5.4192,7.94403 -12.0222,15.34452 -19.7668,22.22141 -18.8084,-21.4656 -40.3472,-42.19405 -65.2084,-62.9643 z m 15.8269,-23.30142 c 0.2109,-0.46635 0.4278,-0.93591 0.6368,-1.41191 31.1619,9.61967 58.281,22.21112 81.9136,37.64569 l -0.4471,1.39583 c -1.9521,6.07542 -4.4513,11.89675 -7.4874,17.47365 -21.5743,-19.1911 -46.0174,-37.14396 -73.9565,-54.68837 l -0.6594,-0.41489 z m 91.4174,42.27703 c 21.5164,15.28019 39.9774,33.09154 55.8526,53.327266 l -1.1159,2.212428 c -3.8658,7.642026 -8.2206,14.906141 -13.032,21.818411 -9.0826,-12.617168 -18.8599,-24.586278 -29.4412,-36.053985 -6.7445,-7.30882 -13.8137,-14.41342 -21.2367,-21.34756 3.6312,-6.33914 6.6287,-12.99026 8.9732,-19.95656 z m 62.7515,62.49699 c 12.9999,18.019763 24.1439,37.819369 33.7218,59.336738 -4.2647,7.334236 -9.5874,14.7038503 -15.8881,22.03713405 -9.7867,-20.70948405 -20.5644,-39.76421705 -32.6089,-57.53599205 5.4547,-7.524327 10.3914,-15.460636 14.7752,-23.83788 z m 10.3271,89.6092887 c -9.3463,9.6923583 -20.3972,19.2708623 -33.0206,28.5676263 -7.854,-20.244729 -16.6054,-39.2579857 -26.4951,-57.357814 10.192,-8.710129 19.4933,-18.131374 27.7911,-28.354071 11.3725,17.099923 21.5743,35.417167 30.8596,55.2923674 l 0.865,1.8518913 z m -41.6722,34.7311633 c -14.7817,10.172525 -31.4738,19.946574 -49.8674,29.097658 -6.2202,-20.000632 -13.0095,-38.981393 -20.6609,-57.280961 l 0.5115,-0.27402 c 15.8975,-8.5039574 30.6599,-17.9187696 44.0586,-28.425471 9.5169,17.5823542 17.937,36.041446 25.4981,55.680576 l 0.4601,1.202218 z m -59.2523,33.641822 c -20.3393,9.584628 -42.6212,18.400248 -66.6043,26.169626 -3.9109,-18.974639 -8.4362,-38.5443 -13.8523,-58.483489 21.1788,-7.289209 41.293,-15.456751 59.992,-24.777316 7.4904,17.994338 14.1449,36.670845 20.2428,56.365294 l 0.2213,0.725885 z m -76.478,29.285176 c -28.1418,8.60978 -58.5062,15.77194 -90.7346,21.0523 l 0.072,-58.213321 1.1784,-0.274973 c 26.1895,-6.162585 51.5898,-12.994449 75.7147,-20.878965 5.3453,19.724347 9.8094,39.066609 13.6655,57.811299 l 0.1029,0.50366 z m -90.6479,-47.764517 0.1106,-87.438036 0.8746,-0.149489 c 16.4104,-2.832834 31.9207,-6.104359 46.4881,-9.833228 4.6158,11.101056 8.8535,22.187961 12.7516,33.2237408 5.194,14.6938667 9.7867,29.2887002 13.8906,43.7027572 -23.5791,7.717607 -48.4461,14.42759 -74.1165,20.494306 z m 180.3671,-173.182723 c -5.7634,8.22384 -12.6847,15.880342 -20.7252,22.992338 6.1846,7.378298 12.0608,14.851157 17.6536,22.450717 9.4783,12.882191 18.1363,26.129099 26.0868,39.888363 9.9026,-8.61848 18.892,-17.94805 26.8455,-28.076525 -9.3784,-13.270709 -19.5288,-25.808758 -30.5796,-37.782692 -6.1397,-6.654971 -12.5592,-13.136271 -19.2811,-19.472201 z m -28.6661,29.564011 c -6.6061,5.116019 -13.8426,9.925204 -21.6868,14.437875 -4.7183,2.711262 -9.655,5.314459 -14.8138,7.813116 5.2552,8.25793 10.2113,16.559601 14.8941,24.944584 7.9538,14.232997 15.1259,28.6969179 21.6806,43.5818272 15.7818,-8.4586213 30.3867,-17.8383642 43.5698,-28.3225522 -8.005,-13.977939 -16.7531,-27.418154 -26.3631,-40.480118 -5.474,-7.437489 -11.2246,-14.751777 -17.2808,-21.974732 z m -45.9403,26.600588 c -14.5501,6.378379 -30.6569,12.00288 -48.2367,16.910167 4.4898,10.856959 8.6195,21.694286 12.4308,32.4785328 5.2069,14.7331301 9.8189,29.3768242 13.9455,43.8458912 20.7733,-7.166016 40.4598,-15.180157 58.7086,-24.310014 -6.5032,-14.8109364 -13.6174,-29.188354 -21.5164,-43.325817 -4.8084,-8.603351 -9.906,-17.122437 -15.3318,-25.59876"
       style="fill:#910306;fill-opacity:1;fill-rule:evenodd;stroke:none"
       id="path14"
       inkscape:connector-curvature="0" />
    <path
       d="m -1046.5794,16.656797 0,-52.559879 c 2.7145,-0.236198 16.5892,0.284004 20.706,0.281431 6.7249,-0.0051 15.8687,1.277786 21.7317,4.766726 8.65498,5.152053 12.13492,15.121005 11.65249,25.3475615 -0.28303,6.00015355 -2.97821,11.6449293 -5.97906,15.1399673 -0.95199,1.1105692 -1.61453,2.2902732 -3.18713,3.3081892 -0.4922,0.317761 -0.4052,0.317761 -0.7945,0.659322 -0.5627,0.491437 -1.0164,0.781538 -1.5374,1.162337 -5.5383,4.042771 -13.4725,5.949981 -20.4517,6.106932 -0.9167,0.02058 -1.4795,0.241086 -2.5056,0.149489 -0.9198,-0.08568 -1.4954,-0.133022 -2.5503,-0.138426 -4.5091,-0.02573 -9.1276,-1.447292 -13.1864,-2.719932 -0.7946,-0.248548 -3.3706,-1.153331 -3.8981,-1.503898 z m -125.3517,-7.2727931 c -2.8462,0 -15.5116,0.190914 -17.895,-0.4772849 l 0,-44.52451 c 5.1107,0.0051 11.8807,-0.873213 16.7019,-0.242374 1.3701,0.179851 2.7145,-0.0051 4.0684,0.09031 8.3526,0.601739 16.6599,1.212509 22.7869,7.315581 1.4569,1.451152 2.573,2.873359 3.5731,5.103476 4.3774,9.760207 0.9906,21.4266717 -7.8089,27.5348898 -0.5885,0.4081494 -1.3573,0.7953806 -2.0455,1.2073637 -0.7205,0.4358087 -1.4311,0.6670411 -2.2128,1.0137481 -1.7946,0.7928076 -3.1614,1.1356551 -5.1974,1.5453997 -4.2261,0.8516513 -5.0396,0.7310307 -8.6546,1.1896617 -0.6626,0.083107 -2.6695,0.243917 -3.3127,0.243917 z m -49.3495,93.6430461 39.5048,0.018 c -0.4438,-0.53389 -0.9682,-0.72879 -1.515,-1.14206 -0.5691,-0.43226 -0.9841,-0.81532 -1.4858,-1.22249 -1.9105,-1.554072 -3.2644,-3.97361 -3.9624,-6.323062 -1.4923,-5.011492 -1.1321,-10.167378 -1.1321,-15.372486 l 0,-53.551113 c 2.9718,0.34928 6.0722,0.207381 8.9024,0.697273 7.2206,1.246267 13.2958,5.410945 17.8629,10.808381 l 45.9564,63.624267 c 0.5177,0.83429 1.3797,2.49385 2.4475,2.49385 l 76.2467,-0.0316 c -0.6111,-0.76772 -1.7689,-1.3656 -2.5537,-2.05291 -0.2895,-0.2537 -0.6754,-0.46216 -0.9232,-0.69213 -0.7719,-0.719789 -2.0648,-2.580686 -2.576,-3.562915 -1.5343,-2.963721 -2.0713,-7.014211 -2.0713,-10.330762 0,-17.667905 -0.1543,-35.341934 0,-53.008553 0.7719,0.04786 2.1194,0.618155 2.9942,0.873213 1.0099,0.295248 1.991,0.584372 3.0618,0.85937 18.7281,4.80918 42.33816,3.306569 57.27113,-9.187413 1.88778,-1.58173 2.15486,-1.637049 4.23253,-3.69735 1.33459,-1.321861 2.48934,-2.929964 3.60524,-4.347024 4.39977,-5.599415 8.45218,-15.8739056 8.45218,-23.5651403 0,-6.2275517 0.054,-9.8933837 -1.72054,-16.0720237 -1.52448,-5.290659 -4.29376,-11.26058 -7.96024,-15.478003 -2.35426,-2.707403 -4.61512,-4.976423 -7.50019,-7.129686 -1.62405,-1.211223 -3.52496,-2.365841 -5.39679,-3.261541 -6.57701,-3.15093 -16.66302,-5.400987 -23.89302,-5.385858 l -64.7358,-0.253695 c 1.1287,0.306492 4.4929,3.694778 5.1909,4.590478 3.48,4.476315 3.094,11.681594 3.094,17.172944 l 0,111.2103 c 0,6.738903 0.2522,12.978033 -2.425,17.851228 -0.7848,1.430878 -3.5378,4.287851 -5.0464,4.875771 -0.8393,0.32805 -5.8437,-2.37454 -6.8407,-2.865642 -0.8491,-0.417155 -2.4636,-1.403243 -3.1519,-1.90721 -0.936,-0.684743 -1.8847,-1.47593 -2.8143,-2.238814 -4.1875,-3.432 -7.0564,-8.063028 -10.3948,-12.356019 l -8.4908,-11.724022 c -2.4281,-3.453588 -5.1395,-6.780431 -7.4518,-10.240091 l -3.2483,-4.341878 c -0.431,-0.629733 -0.6531,-1.008937 -1.0292,-1.496513 -0.7848,-1.012462 -1.4378,-1.886935 -2.184,-2.873024 l -7.4616,-10.230442 c -1.8654,-2.427258 -3.3191,-4.9536 -5.2648,-7.367041 -3.3803,-4.1875 -6.9246,-8.30939 -11.3951,-11.358662 -0.4855,-0.33289 -1.0837,-0.649364 -1.4375,-1.121812 4.2068,-1.175845 5.326,-1.322838 9.8125,-2.884628 3.0554,-1.062634 5.7248,-2.709641 8.5327,-4.285273 4.715,-2.645651 9.8223,-8.4325568 12.0608,-13.425086 3.9268,-8.7567507 4.4255,-18.772016 1.7946,-27.989662 -0.8331,-2.912287 -1.8782,-5.061999 -3.123,-7.521753 -1.1386,-2.250058 -2.7467,-4.241532 -4.3741,-6.11851 -3.0006,-3.457421 -7.7317,-7.138356 -12.2151,-8.904696 -6.0946,-2.400911 -10.5265,-3.130655 -17.1874,-3.966225 l -10.0505,-0.549019 -58.1748,0.0051 c 5.3034,3.804128 7.2815,6.620572 7.9826,13.499059 0.4117,4.068191 0.1287,16.385282 0.1287,21.325065 l 0,96.94707 c 0,3.070499 0.2895,7.902527 -0.046,10.753063 -0.3731,3.220065 -0.8427,6.137164 -2.3671,8.45893 -2.6631,4.051775 -4.416,3.855585 -5.5417,5.370755 z m -321.3663,-75.675082 -0.5051,7.208804 c -0.2668,2.202458 -0.5725,4.363439 -1.0614,6.492876 -1.8461,8.059169 -3.5314,12.619749 -7.2653,19.446802 -0.4759,0.864181 -0.9905,1.528649 -1.4313,2.361647 -0.8843,1.669854 -2.187,3.007795 -3.1133,4.466358 -0.9198,1.442146 -2.5022,2.83412 -3.5957,4.169798 -3.8046,4.649681 -12.6042,10.276755 -17.9495,12.563143 -12.0577,5.161058 -26.2507,5.972829 -39.1253,2.806796 -5.0204,-1.235024 -11.6972,-3.942426 -16.1163,-6.818048 -3.4606,-2.253917 -5.5833,-3.769059 -8.4972,-6.66879 l -3.8113,-3.945976 c -2.2544,-2.387068 -3.139,-3.971371 -4.8886,-6.492876 -2.1292,-3.06664 -4.9723,-9.295478 -6.2138,-12.917569 -1.3538,-3.942425 -2.293,-7.933737 -2.9846,-12.340891 -1.3282,-8.451237 -0.9584,-19.650374 0.7976,-28.2900807 1.4378,-7.0692204 4.4127,-16.0585157 8.4136,-22.1278053 0.4343,-0.657083 0.9649,-1.649604 1.4666,-2.321457 0.6016,-0.797953 1.0614,-1.434762 1.6338,-2.167414 l 2.6407,-3.135801 c 0.5918,-0.558976 0.4052,-0.591447 0.8457,-1.144326 1.0228,-1.292914 3.5443,-3.275384 4.9208,-4.459899 3.6248,-3.124557 8.9444,-6.349768 13.1898,-7.941456 11.0861,-4.155981 21.1336,-5.296782 33.0914,-3.579328 3.7372,0.536463 5.7827,1.122147 9.2884,2.108236 0.952,0.268874 1.8044,0.654485 2.8174,0.991234 3.8757,1.281337 6.9277,3.093013 10.3274,4.992504 1.6145,0.900872 2.8848,2.123339 4.4479,3.148356 1.6724,1.095749 2.6823,2.343328 4.0781,3.495373 1.2384,1.02018 4.6764,4.740044 5.5288,6.026526 l 3.1454,4.442224 c 3.5217,5.4990687 6.487,12.70915891 7.9922,19.0814146 l 0.2606,1.1417531 c 0.6914,3.1737523 1.6176,8.9603493 1.6498,12.0067393 0.026,2.360695 0.4729,5.114745 0.026,7.401133 z m -141.8798,-5.414804 c 0,7.061836 -0.1981,10.026843 0.8877,17.052323 1.1707,7.574165 3.3608,15.441339 6.7314,22.152917 2.6792,5.331826 5.2007,10.036801 9.1438,14.681337 l 2.158,2.726365 c 1.5566,1.795286 3.1647,3.300161 4.7985,4.944929 0.7848,0.788922 1.576,1.538941 2.422,2.273857 13.6431,11.83852 31.6925,18.860138 49.7418,19.994508 9.7804,0.6143 19.1974,-0.0232 28.7658,-2.34302 6.3969,-1.55052 9.1821,-2.66847 14.9327,-5.113431 5.4451,-2.314073 11.5461,-5.931018 16.2933,-9.708773 3.1261,-2.487723 4.0588,-3.001364 7.4585,-6.434985 3.1807,-3.217492 6.3166,-6.67234 9.1242,-10.736647 8.6516,-12.525526 13.2155,-25.513518 14.3026,-40.803051 l 0.3023,-7.42236 -0.7204,-9.3897 c -1.6145,-13.66406345 -7.6095,-28.991214 -16.361,-39.236759 -2.3864,-2.791332 -4.0266,-5.214756 -7.2395,-7.941121 -1.7882,-1.517741 -2.0617,-1.993739 -4.0879,-3.486367 -2.9363,-2.158409 -3.4414,-2.869499 -7.2717,-5.370755 -5.5255,-3.613086 -10.7615,-6.02169 -16.9206,-8.348293 -3.763,-1.42092 -7.8926,-2.472619 -11.8485,-3.343259 -16.2612,-3.578016 -37.6006,-2.409581 -52.9388,3.973944 l -5.2584,2.309236 c -0.7688,0.312615 -1.0356,0.406863 -1.7303,0.795046 -7.1304,3.977495 -7.4551,4.100663 -13.7782,8.975144 -5.4161,4.176256 -9.3754,8.79182 -13.5531,14.251986 -0.6883,0.89956 -1.2736,1.816513 -2.0488,3.000077 l -3.7339,6.372255 c -0.3216,0.576679 -0.5566,0.963576 -0.9134,1.63319 -0.3538,0.665754 -0.4374,1.03145 -0.7719,1.74254 -4.5897,9.8029954 -6.2073,17.3347062 -7.5036,27.838834 -0.1569,1.266542 -0.3826,3.674837 -0.3826,4.960033 z m 206.4354,-4.717531 c 1.2832,-11.8507404 4.1134,-20.8638356 10.7486,-30.723436 l 7.4582,-8.61462 c 0.9906,-1.130818 0.6883,-0.468589 1.4795,-1.23245 2.0553,-1.983756 6.1399,-4.896018 8.7965,-6.36711 5.2038,-2.888488 9.9638,-4.823023 16.0617,-6.33819 2.0262,-0.50268 4.1841,-0.913402 6.3488,-1.209937 l 6.6768,-0.744873 9.388,0.0013 c 1.3315,0 3.6184,0.35669 5.0528,0.503657 5.5126,0.562836 12.8133,2.556575 17.9593,4.491445 3.5635,1.340514 4.5122,2.040361 7.6705,3.498897 1.0549,0.487268 2.5699,1.448579 3.5057,1.694632 0.1157,-0.738775 -1.9328,-16.189094 -2.1644,-18.504453 -0.8491,-8.441254 -0.3378,-6.769136 -3.1874,-7.304312 -4.0684,-0.763862 -11.2727,-1.824232 -15.2865,-2.104377 l -6.3295,-0.468588 -16.9687,0.324194 c -1.428,0.07539 -3.2934,0.302632 -4.7054,0.481144 -11.0218,1.39326 -18.8501,3.221352 -28.9039,7.272793 l -3.5186,1.524173 c -1.2705,0.577631 -2.3061,1.124386 -3.5314,1.702325 -1.2448,0.587922 -2.0038,1.07519 -3.2869,1.758621 -7.9312,4.219997 -16.8208,11.899962 -22.3848,18.787145 -2.9589,3.658447 -5.7699,7.776786 -8.1306,12.450267 -3.7372,7.4037061 -6.278,14.9804438 -7.555,23.258623 -1.0613,6.904551 -1.4216,14.574558 -0.7171,21.449211 0.3183,3.130964 0.5113,5.532826 1.1288,8.640968 1.9876,9.966713 5.6188,19.486991 11.3308,27.837882 4.4319,6.477747 6.9277,8.661242 12.3052,13.876307 2.1322,2.068998 4.7438,3.977495 7.2879,5.706193 4.091,2.780088 6.0817,3.884533 10.3305,6.099547 11.2503,5.870529 25.8261,9.139809 38.4143,10.451379 10.1406,1.05522 26.6302,0.56412 36.9895,-0.91212 l 11.2632,-1.76762 c 1.1933,-4.423569 2.2127,-8.833322 3.3417,-13.231805 l 3.2741,-13.258152 c -0.5179,0.158494 -0.6882,0.344443 -1.1257,0.584372 -4.0557,2.231094 -12.5208,5.917175 -16.8691,7.311722 -5.7313,1.840647 -12.6011,3.47641 -18.8727,3.752669 -5.6219,0.249063 -9.5552,0.238514 -15.1998,-0.427112 -8.1756,-0.963576 -11.7808,-1.928437 -19.5576,-4.595624 -1.949,-0.667041 -3.8208,-1.58914 -5.6896,-2.438527 -0.9584,-0.433545 -1.6917,-0.962289 -2.5953,-1.379444 -0.9263,-0.427112 -1.6532,-0.957451 -2.5087,-1.464969 -5.7282,-3.396956 -10.9448,-8.05307 -15.1259,-13.214103 -0.6656,-0.820467 -1.0259,-1.449865 -1.6596,-2.301517 -4.5379,-6.119487 -8.243,-14.657536 -9.7675,-22.377717 -0.6496,-3.282794 -1.2993,-7.291782 -1.4473,-10.720257 l -0.1595,-4.513958 0.4374,-7.244182 z m 141.2589,5.9815 c 0,-8.174952 2.0777,-17.5546947 4.8791,-24.9908714 2.335,-6.2002016 6.86,-13.4025726 11.6457,-18.1352326 0.6755,-0.670901 1.2256,-1.216035 1.901,-1.892081 7.0401,-7.042848 17.0201,-11.96269 26.7266,-14.276738 2.0229,-0.482431 3.9946,-0.843289 6.1461,-1.18485 l 6.7316,-0.732343 c 6.857,0 7.5226,-0.181137 14.2638,0.488555 6.754,0.6709 13.7687,2.864353 20.0626,5.262664 1.6339,0.623301 8.7129,4.432575 9.237,4.426143 l -2.9427,-24.809812 c -0.2161,-1.011484 -0.1647,-0.55028 -2.5506,-1.010197 -6.6413,-1.275239 -13.4532,-2.111761 -20.2042,-2.388355 -0.7333,-0.03036 -0.7719,-0.162097 -1.4409,-0.16081 -9.9347,0.0026 -13.5916,-0.203522 -23.073,0.968721 -5.625,0.697274 -14.3829,2.470998 -19.667,4.280127 -2.9911,1.02404 -5.7506,1.961242 -8.6966,3.217492 -2.6535,1.130818 -5.6927,2.507663 -8.1499,3.943712 -11.2086,6.555579 -15.782,10.269345 -24.4431,20.508458 -2.6021,3.074049 -7.4843,11.219078 -8.9604,14.8698059 -1.6853,4.1797811 -2.7016,6.1410234 -3.9078,10.9087269 -2.6502,10.4626262 -3.7339,21.2848502 -2.4829,32.4910632 1.5728,14.076047 6.6223,27.327792 15.322,38.514065 l 2.7338,3.220065 c 0.5403,0.658345 0.9553,1.001192 1.5116,1.563076 l 3.0652,3.065353 c 0.5338,0.504944 0.8941,0.962289 1.4568,1.434762 1.1128,0.938489 2.0648,1.824232 3.2162,2.748879 l 5.1943,3.833074 c 0.5241,0.371793 1.235,0.732343 1.7913,1.094153 9.0118,5.878272 19.2072,9.693982 29.6084,12.249242 17.464,4.29042 36.7998,3.94855 54.6755,1.66471 3.599,-0.45992 7.3491,-1.29292 10.324,-1.64701 0.4052,-2.12076 1.129,-4.590811 1.6436,-6.636009 l 4.9658,-19.841417 -3.8787,1.963815 c -1.2479,0.630711 -2.618,1.226044 -3.9109,1.849319 -7.7833,3.743663 -18.1137,7.016474 -26.8973,7.656191 -15.0969,1.098964 -27.9231,-1.0279 -39.4981,-5.883419 -2.9911,-1.255272 -3.9495,-1.969913 -5.8278,-2.837002 l -3.66,-2.104376 c -4.1811,-2.707402 -7.5066,-5.729993 -11.0092,-9.218907 -2.47,-2.462327 -2.3059,-2.611893 -3.914,-4.747763 -6.0014,-7.95625 -9.2369,-16.293299 -10.9963,-26.391542 -0.7814,-4.49273 -0.9906,-8.853262 -0.9906,-13.333437"
       style="fill:#910306;fill-opacity:1;fill-rule:evenodd;stroke:none"
       id="path16"
       inkscape:connector-curvature="0" />
    <path
       d="m -1018.0807,139.79245 c 4.7312,-0.39075 10.8484,-0.30039 14.9296,0.73492 7.92477,2.00882 9.53622,11.91506 3.22911,17.46045 -3.74671,3.29146 -10.16321,2.81546 -14.82981,2.81546 -0.4181,0 -0.9875,-0.15952 -1.6853,-0.15721 -1.3251,0.003 -1.6307,0.20224 -1.6595,-1.2273 l 0.026,-19.62624 z m 76.09235,52.00693 -0.18268,-0.0903 c -1.35415,0.66207 -1.66599,1.54022 -4.29376,2.20608 -2.41524,0.61185 -16.82385,0.5641 -18.95632,0.32543 l 0.003,-19.33861 c 1.00037,-0.14074 12.78121,-0.21741 14.46006,-0.0103 2.2354,0.27659 2.04551,0.91598 3.41562,1.50904 l -0.40525,-5.78564 c -0.76211,-0.0803 -1.00345,0.21252 -2.02286,0.24108 l -15.45065,-0.079 0,-14.36743 c 1.33794,-0.21098 15.35082,-0.28367 17.00729,0.15592 2.16772,0.57282 2.65968,1.38202 3.69529,1.83808 l -0.96486,-6.05324 -27.48878,0 c 0.53055,0.80791 2.28016,1.35176 2.33497,4.80051 0.1801,11.41015 -0.0592,23.88033 0,35.46124 0,1.81415 -0.18526,4.25268 -1.94903,5.18363 -0.81691,0.43215 -3.74057,-1.46994 -4.4996,-1.95865 -1.53091,-0.98871 -2.62108,-2.06035 -3.5795,-3.50013 -2.29972,-3.46118 -5.2136,-7.22514 -7.32987,-10.40103 -0.31518,-0.47247 -0.41167,-0.68989 -0.73329,-1.14209 l -3.64075,-5.1247 c -2.11935,-3.05025 -3.48945,-5.33182 -6.18463,-7.99901 -0.63372,-0.62557 -1.27365,-0.92725 -2.02955,-1.50261 -0.5532,-0.41811 -1.2415,-0.95972 -1.9362,-1.29261 0.9296,-0.44739 3.1424,-0.79021 4.37742,-1.21603 3.19048,-1.09933 3.86897,-1.56437 6.15248,-3.3571 2.01977,-1.58171 0.34091,-0.0654 2.03264,-2.06671 2.34474,-2.77399 2.91079,-6.88847 2.54415,-10.77689 -0.55654,-5.84318 -4.53485,-10.2465 -10.05386,-11.83337 -2.82073,-0.81144 -6.32643,-1.15076 -9.61003,-1.13692 -7.1078,0.0314 -14.2607,-0.24984 -21.6484,-0.15052 0.2735,0.44222 0,0.0653 0.2701,0.34285 1.1612,1.18228 2.422,1.02404 2.9847,5.42347 0.2418,1.85704 0.2418,50.55608 0,52.40036 -0.6271,4.862 -2.3028,4.47505 -3.1712,5.77157 l 14.026,0 c -0.7076,-0.90707 -3.1617,-1.71864 -3.2646,-5.84693 -0.075,-2.94234 0,-6.00402 0,-8.96015 0,-5.7452 -0.2766,-12.20012 0.026,-17.85745 5.9534,-0.32546 10.4205,2.02397 13.7783,6.46491 l 16.52486,23.96338 c 0.48578,0.69349 1.04205,1.86187 1.74962,2.2375 l 42.1292,-0.0803 1.47946,-4.73633 c 0.22899,-0.64325 0.37617,-0.93849 0.40833,-1.66214"
       style="fill:#131517;fill-opacity:1;fill-rule:evenodd;stroke:none"
       id="path18"
       inkscape:connector-curvature="0" />
    <path
       d="m -2245.099,165.74435 c 0,-1.245 0.2676,-3.37575 0.4421,-4.65964 1.1761,-8.63358 5.6522,-16.40393 13.6588,-20.26853 1.9675,-0.95104 5.1197,-1.78885 7.758,-2.01753 29.9758,-2.58807 35.9245,35.16694 19.0636,49.72421 -1.7301,1.49376 -3.6999,2.72125 -6.004,3.71371 -6.6563,2.86822 -15.0521,2.54786 -21.3703,-0.8254 -9.9702,-5.32056 -13.5469,-14.9427 -13.5482,-25.66682 z m -7.979,0.37308 c 0,3.50405 0.059,5.39839 0.9775,9.09446 1.6809,6.77173 5.8355,13.60874 11.224,17.49832 3.5088,2.53275 7.5995,4.66854 11.9175,5.64845 8.2818,1.88074 15.4241,1.37067 23.2874,-1.99628 0.6934,-0.29777 2.029,-0.9812 2.5881,-1.33674 3.1269,-1.99003 3.7488,-2.31922 6.6107,-5.14467 2.7425,-2.70866 4.5318,-5.11078 6.4499,-9.04168 5.1321,-10.50798 4.1736,-25.30639 -3.192,-34.65461 -2.7338,-3.47127 -2.5079,-3.29438 -6.0344,-6.10084 -2.5215,-2.00627 -4.7803,-3.14352 -7.8596,-4.4361 -9.7451,-4.08684 -24.148,-2.98883 -32.3882,3.38698 -0.4019,0.31166 -0.74,0.56283 -1.1671,0.89088 -7.935,6.07542 -12.4164,16.19265 -12.4138,26.19183"
       style="fill:#131517;fill-opacity:1;fill-rule:evenodd;stroke:none"
       id="path20"
       inkscape:connector-curvature="0" />
    <path
       d="m -644.1839,139.79729 c 1.50853,-0.1392 2.61491,0.044 3.89496,0.11192 3.73079,0.19838 7.03062,-0.32033 11.28245,0.56284 9.14997,1.90206 11.31461,13.34468 6.38738,19.9958 -1.08708,1.46852 -2.48934,2.47099 -4.36761,3.48122 -2.96868,1.60167 -5.889,1.63962 -9.20478,1.63962 -1.75939,0 -7.04349,-1.49651 -7.9924,-2.26905 l 0,-23.52235 z m -10.76786,58.47971 14.02601,0 c -0.58227,-0.90201 -1.11924,-0.64574 -2.11961,-2.17094 -1.68838,-2.57546 -1.13854,-7.86587 -1.13854,-11.14364 0,-2.59672 -0.1518,-14.83085 0.0592,-16.32605 0.64967,0.0553 1.93307,0.57408 2.56653,0.77026 0.96486,0.29752 1.904,0.53261 2.86577,0.70726 6.05599,1.09673 12.69115,0.75517 17.92713,-2.20374 12.14748,-6.86822 10.861,-22.3549 4.11674,-28.6027 -1.31221,-1.21508 -2.49577,-2.13201 -4.19727,-2.89459 -5.74723,-2.57039 -13.05137,-2.08055 -19.63816,-2.08055 -4.82096,0 -9.64527,0 -14.46649,0 0.62394,0.92851 2.89793,1.40065 3.25171,5.67725 0.21099,2.57682 0.0257,6.07958 0.0257,8.75546 l 0,35.078 c 0,2.7627 0.16725,6.07184 -0.003,8.76669 -0.14151,2.24004 -0.9327,3.78408 -2.59869,5.0429 l -0.66589,0.62439"
       style="fill:#131517;fill-opacity:1;fill-rule:evenodd;stroke:none"
       id="path22"
       inkscape:connector-curvature="0" />
    <path
       d="m -1422.4573,198.23179 c 0.051,-0.0955 0.1672,-0.34673 0.2084,-0.40831 0.1801,-0.28017 0.064,-0.12324 0.2547,-0.32162 0.093,-2.181 1.6274,-5.46127 1.5919,-7.49149 -2.2514,1.03773 -3.8981,1.97493 -6.487,2.64081 -11.4401,2.94106 -25.2343,0.40578 -32.5222,-9.16492 -1.47,-1.92975 -3.2582,-5.30291 -4.001,-7.74787 -2.8367,-9.33441 -1.3284,-21.95189 5.236,-28.55124 1.4859,-1.49262 2.9813,-3.10814 4.998,-4.33835 7.5354,-4.5879 18.2551,-5.42957 26.3373,-1.82647 0.7367,0.32774 2.721,1.31028 3.2646,1.41192 l -0.9584,-8.03795 c -1.6115,-0.25112 -2.8207,-0.52004 -4.4289,-0.7185 -15.8623,-1.96253 -31.9562,2.34302 -40.2347,16.47663 -3.0971,5.29065 -3.9945,10.89491 -4.0074,17.08255 -0.026,10.18508 4.5606,18.79083 11.9965,24.58 9.6036,7.48267 22.5039,8.18874 34.0853,7.08316 1.5922,-0.15206 3.1262,-0.49622 4.6669,-0.66835"
       style="fill:#131517;fill-opacity:1;fill-rule:evenodd;stroke:none"
       id="path24"
       inkscape:connector-curvature="0" />
    <path
       d="m -1798.7727,142.16666 c 0.434,-0.0286 0.1827,0.0954 0.4405,-0.12068 l -0.1544,-1.02373 c 0.1286,-1.37589 -0.4212,-5.04301 -0.6625,-6.60318 -10.4815,-2.1584 -21.6644,-1.5454 -31.4576,3.20849 -0.6368,0.30907 -1.0742,0.60431 -1.6724,0.95359 -2.8174,1.64832 -2.7822,2.02012 -4.7184,3.30531 -0.9615,0.6384 -3.1325,2.93125 -3.8594,3.98004 -0.3409,0.4937 -0.7492,0.95491 -1.1288,1.47624 -5.8406,8.0267 -7.5357,19.63913 -4.3869,29.4447 0.4727,1.46111 0.9037,2.47614 1.428,3.789 0.6206,1.55021 2.9299,5.05804 4.0525,6.39855 2.0326,2.42723 2.9941,3.30286 5.416,5.02657 1.0002,0.71112 1.8943,1.48499 3.1228,2.10059 1.2449,0.62065 2.1968,1.15583 3.6313,1.80031 7.6481,3.43732 14.4858,3.45366 22.4972,3.32929 1.9104,-0.0301 8.2528,-0.56284 9.3303,-1.20858 0.2604,-0.46233 1.8204,-7.06562 1.9748,-7.94377 -0.6368,-0.0265 -0.9489,0.32664 -1.6145,0.65202 -8.6292,4.23885 -20.1464,4.03659 -28.5278,0.008 -0.6466,-0.3103 -0.9682,-0.58921 -1.5471,-0.8857 -0.7364,-0.37562 -0.7364,-0.38445 -1.3958,-0.84046 -6.9437,-4.81805 -10.8546,-11.7014 -11.4335,-20.66175 -0.5275,-8.15082 1.6755,-15.28179 6.5127,-21.08995 6.2973,-7.55808 17.9111,-9.95253 27.5212,-7.54424 3.8015,0.95231 4.3192,1.70876 6.6318,2.44848"
       style="fill:#131517;fill-opacity:1;fill-rule:evenodd;stroke:none"
       id="path26"
       inkscape:connector-curvature="0" />
    <path
       d="m -1713.6753,198.59236 c 0.039,0.0352 0.093,0.0314 0.1158,0.0993 l 0.247,0.2097 c 0.034,0.0278 0.09,0.0715 0.1313,0.11063 l 11.9385,-28.91834 c 0.4889,-1.10926 3.6312,-9.26396 4.1458,-9.51771 l 1.1031,9.67499 c 0.4343,3.3278 0.8074,6.41214 1.19,9.66985 0.3378,2.86692 2.2353,14.52322 1.2126,16.6665 -0.1312,0.27765 -0.3023,0.53521 -0.5146,0.79526 l -0.563,0.63572 c -0.028,0.0365 -0.075,0.098 -0.098,0.12814 -0.026,0.0301 -0.07,0.0841 -0.1004,0.1307 l 9.5748,-0.003 c -0.4631,-1.3719 -1.9331,-1.39576 -2.4026,-4.34942 -0.3088,-1.92218 -0.5242,-4.06294 -0.82,-6.10953 l -3.8016,-30.46843 c -0.054,-1.22504 -0.062,-2.08441 0.3247,-2.98752 0.5115,-1.19998 0.9489,-1.16846 1.5343,-2.0066 l -8.0341,0 -2.5828,6.35329 c -0.283,0.7465 -0.6334,1.41611 -0.9391,2.23269 -0.2732,0.73878 -0.6013,1.39069 -0.8779,2.1182 -2.3607,6.14586 -5.7248,13.47268 -7.989,19.43522 l -1.769,4.25278 c -0.7075,-1.34929 -1.1835,-2.76394 -1.8654,-4.28528 l -11.7841,-28.12538 c -1.084,-2.70869 0.1441,-1.98152 -8.9123,-1.97637 0.2638,0.91083 2.097,1.05525 1.8847,4.59822 -0.2187,3.57287 -1.6433,14.50539 -2.1098,18.30471 -0.6432,5.25142 -1.3603,13.70027 -2.1227,18.40395 -0.5982,3.70116 -1.7656,3.39964 -2.5246,4.61323 l 8.1916,0 c -0.3667,-0.7387 -1.7561,-1.51136 -1.7432,-3.79533 l 1.711,-14.58215 c 0.5082,-4.60337 2.0553,-15.63398 2.2675,-19.37411 0.3955,0.44224 8.9025,20.81754 10.0248,23.71213 1.5729,4.05918 4.6442,10.62351 5.9534,14.35483"
       style="fill:#131517;fill-opacity:1;fill-rule:evenodd;stroke:none"
       id="path28"
       inkscape:connector-curvature="0" />
    <path
       d="m -862.48709,177.49861 c -0.20326,1.58173 -0.247,2.55786 -0.61751,3.97492 -2.29637,8.85218 -9.85445,14.98808 -19.40967,13.69532 -3.28696,-0.44597 -5.9276,-1.45231 -8.32689,-3.26522 -2.34139,-1.77017 -1.37653,-0.8078 -3.60858,-3.65716 -2.58892,-3.30541 -4.4062,-9.44144 -3.6922,-15.10484 0.79453,-6.33691 2.28042,-9.61229 5.73128,-13.11247 6.65111,-6.74375 19.89236,-6.07061 26.26044,2.52791 2.60513,3.51629 4.39643,9.18389 3.66313,14.94154 z m -19.54475,21.57618 c 4.55415,0 7.78631,-0.14691 12.22158,-2.25638 1.96189,-0.93345 5.45469,-3.20237 6.78928,-4.79668 0.51151,-0.61306 0.87816,-0.85427 1.29626,-1.50382 0.42454,-0.66081 0.78141,-1.0553 1.24789,-1.7375 0.68827,-1.00883 1.5533,-2.50763 2.0486,-3.73131 1.09994,-2.73133 1.98761,-6.10191 2.01025,-9.59695 0.0257,-3.53044 -0.65945,-6.96535 -1.88804,-9.73417 -0.56605,-1.28648 -1.12232,-2.57296 -1.97784,-3.7916 -2.24182,-3.19755 -5.59619,-6.34459 -9.32699,-8.0418 -7.73176,-3.52012 -18.16848,-3.28148 -25.13787,2.13461 -8.66137,6.73118 -11.53666,18.71412 -7.5357,29.03372 1.37011,3.53276 4.36452,7.47011 7.45851,9.5192 3.60524,2.38827 8.08555,4.50268 12.79407,4.50268"
       style="fill:#131517;fill-opacity:1;fill-rule:evenodd;stroke:none"
       id="path30"
       inkscape:connector-curvature="0" />
    <path
       d="m -1376.4882,175.63419 c -0.1055,0.62425 0.026,1.50003 -0.057,2.19345 -0.067,0.59564 -0.1853,1.44374 -0.3183,2.11559 -1.2512,6.29942 -4.3934,10.90135 -9.9865,13.71172 -4.435,2.22623 -11.038,2.11819 -15.5373,-0.17085 -4.3581,-2.21617 -7.1241,-5.62836 -8.7996,-10.26806 -3.0747,-8.52423 -0.5982,-22.12878 9.2529,-26.27352 2.8336,-1.19094 4.7279,-1.42478 8.0696,-1.40839 2.5923,0.0129 5.5093,0.87322 7.4552,1.81171 1.7946,0.8642 4.1296,2.68972 5.3582,4.16467 2.917,3.49761 5.2681,9.99661 4.5637,14.12365 z m -41.6628,-0.56027 c 0,4.41843 0.518,6.70867 2.1163,10.77422 5.191,13.21912 26.1061,18.25322 37.9417,7.04678 1.8299,-1.73122 3.7082,-3.90723 4.9625,-6.60331 3.9528,-8.48005 3.509,-18.23192 -2.1613,-25.68323 -1.0935,-1.43602 -2.8784,-3.20849 -4.3064,-4.28013 -7.9311,-5.9577 -20.6802,-6.54047 -28.7691,-0.59692 -0.5918,0.43611 -1.0742,0.80533 -1.6274,1.17489 -0.5982,0.39685 -1.0129,0.91307 -1.5437,1.44343 -4.0396,4.02155 -6.6126,11.04317 -6.6126,16.72427"
       style="fill:#131517;fill-opacity:1;fill-rule:evenodd;stroke:none"
       id="path32"
       inkscape:connector-curvature="0" />
    <path
       d="m -1914.9261,156.33695 12.0126,-0.001 c 1.8685,0 5.3099,1.12568 6.5899,1.89337 6.2009,3.72244 8.2111,9.83323 8.2078,17.03079 0,5.09799 -1.0387,9.78426 -3.6601,13.17636 -0.9808,1.26891 -2.8238,3.1333 -4.4705,3.93105 -1.6338,0.7915 -4.4929,1.92471 -6.294,1.92471 l -12.3857,-10e-4 0,-37.95373 z m -7.767,-3.98521 c 0.4662,0.98642 1.9264,0.60305 2.3092,3.93761 l 0.031,18.97047 c 0,2.95986 0.1749,16.76191 0,19.01202 -0.1107,1.37065 -0.5275,2.28904 -1.4344,3.14962 l -0.846,0.85554 c 5.2071,-0.003 10.414,0 15.6212,0 5.4354,0 9.2336,-0.25627 13.1638,-2.39706 5.3294,-2.90086 8.8188,-6.73895 10.6006,-12.71533 1.5536,-5.21252 1.7208,-10.444 0.026,-15.64396 -0.6335,-1.93453 -1.3959,-3.75877 -2.486,-5.34178 -5.368,-7.82313 -11.4274,-9.82713 -21.4843,-9.82713 -5.1621,0 -10.3274,-0.001 -15.4862,0"
       style="fill:#131517;fill-opacity:1;fill-rule:evenodd;stroke:none"
       id="path34"
       inkscape:connector-curvature="0" />
    <path
       d="m -1132.9121,195.24802 c -1.9843,0 -5.6798,-1.38448 -7.1238,-2.22998 -4.2582,-2.49382 -6.6382,-5.74145 -8.1177,-10.51566 -2.1291,-6.87205 -0.8524,-16.55703 4.0362,-21.61741 3.2934,-3.40982 6.6545,-5.32184 13.074,-5.34692 10.2855,-0.0414 17.8145,8.54159 17.8595,18.96789 0.026,6.65497 -2.293,13.63249 -7.2395,17.15272 l -1.9653,1.39455 c -3.9204,2.22618 -6.3681,2.19481 -10.5234,2.19481 z m 25.4821,-18.6818 c 0.5661,-3.09173 -0.566,-7.64974 -1.4828,-10.19118 -1.949,-5.39358 -6.3423,-9.97281 -11.4432,-12.439 -5.8373,-2.82285 -13.8778,-3.18211 -19.8085,-0.86547 -16.4189,6.41471 -18.9049,27.7848 -8.6228,38.79792 4.0107,4.29662 10.4303,7.18994 16.4284,7.21132 8.2592,0.0301 13.5724,-2.1697 18.9949,-7.63849 1.3379,-1.34805 2.6501,-3.6798 3.5764,-5.38465 0.6466,-1.18973 1.2641,-2.93356 1.6179,-4.35932 0.8007,-3.23517 0.431,-3.47028 0.7397,-5.13113"
       style="fill:#131517;fill-opacity:1;fill-rule:evenodd;stroke:none"
       id="path36"
       inkscape:connector-curvature="0" />
    <path
       d="m -544.3593,155.61845 c 2.40906,-0.47505 6.31019,0.1886 8.32997,0.89056 1.14832,0.39945 2.25469,0.85069 3.29983,1.53896 0.52102,0.34573 0.88767,0.56412 1.4828,0.9475 4.00739,2.58904 6.86338,8.7992 7.2236,13.84834 1.64978,23.10648 -20.72523,26.90814 -29.75325,17.9932 -1.5919,-1.57669 -2.83026,-3.01644 -4.03312,-5.49014 -3.35438,-6.90108 -2.36713,-17.19551 1.5695,-22.71709 l 2.18702,-2.66207 c 1.22216,-0.85808 1.29626,-1.15462 2.65993,-2.01141 2.72091,-1.70974 4.2261,-1.78402 7.03372,-2.33785 z m 26.08677,22.6276 c 1.28648,-8.62586 -2.51842,-16.81206 -8.11127,-21.31734 -3.37702,-2.71994 -7.96667,-4.82943 -12.55941,-5.20382 -14.23158,-1.15719 -24.72619,6.89716 -26.43078,20.55351 -1.08708,8.68244 1.68529,16.2432 8.10818,21.67936 5.88231,4.98008 15.93617,6.46756 23.2241,3.90468 3.12949,-1.10056 5.3196,-2.36818 7.54213,-4.20495 4.98177,-4.12075 7.23312,-8.78173 8.22705,-15.41144"
       style="fill:#131517;fill-opacity:1;fill-rule:evenodd;stroke:none"
       id="path38"
       inkscape:connector-curvature="0" />
    <path
       d="m -598.54259,156.33821 c 1.75913,-0.005 3.66956,-0.23002 5.66695,-0.16338 3.31913,0.11192 5.38393,0.40588 7.88923,2.0516 0.58869,0.38564 0.20326,-0.0103 0.65301,0.65194 1.84276,2.69742 2.27065,5.68623 0.46957,8.60335 -2.62777,4.25664 -8.09532,3.84689 -12.56584,3.84689 l -2.11292,-0.16081 0,-14.82961 z m 11.45278,18.17769 c -0.30876,-0.29749 -0.14152,0.38466 -0.28303,-0.37661 l 0.51459,0 c 1.51805,-0.64229 3.29674,-0.62587 5.67982,-2.10437 1.72389,-1.06938 2.84313,-2.36713 3.70507,-4.11706 2.29972,-4.66735 0.81692,-12.82463 -6.57701,-14.70032 -4.40955,-1.11826 -17.03303,-0.86452 -22.26258,-0.8658 0.28612,0.90216 1.96832,0.95104 2.31233,3.93504 l 0,37.96244 c -0.28946,2.88705 -1.68195,3.09811 -2.27064,4.03032 l 10.02813,-0.0352 c -0.63038,-1.02267 -2.16129,-1.24001 -2.30924,-4.31928 -0.20326,-4.32176 0,-14.39512 0,-19.08852 5.05922,-0.008 7.31365,1.52384 9.96072,4.70852 l 8.24944,11.89873 c 0.75902,1.27393 1.64669,2.21244 2.35117,3.43607 0.69779,1.20988 1.54687,2.07167 2.27064,3.39209 l 9.63241,0.005 c -1.4087,-1.39952 -2.56653,-0.19349 -6.27803,-5.09941 -0.46314,-0.61438 -0.72352,-1.0164 -1.11924,-1.67724 -0.78141,-1.30658 -9.39132,-13.38616 -10.56845,-14.62633 -0.58535,-0.61558 -2.24157,-1.94097 -3.04562,-2.35812"
       style="fill:#131517;fill-opacity:1;fill-rule:evenodd;stroke:none"
       id="path40"
       inkscape:connector-curvature="0" />
    <path
       d="m -1784.9495,156.41607 c 2.6854,-0.67702 12.0961,-0.69599 14.4794,2.88589 1.9457,2.92224 1.428,6.17609 -0.4215,8.9224 -0.4662,0.69341 -0.8393,0.9134 -1.5597,1.41834 -3.464,2.43243 -8.462,1.5216 -12.5787,1.52641 l 0.08,-14.75304 z m 11.3082,18.13135 -0.229,-0.35795 0.521,-0.0803 c 3.2708,-0.97258 7.7189,-2.06673 9.4331,-6.20504 1.7593,-4.24024 0.8362,-8.78572 -1.6789,-11.79576 -2.4345,-2.91452 -7.0435,-3.61084 -11.8807,-3.597 l -15.3155,-0.15952 c 0.1929,0.43611 0.4309,0.47373 0.8266,0.81563 0.9165,0.79247 1.2896,1.96736 1.4504,3.23872 l 0,37.8921 c -0.3826,2.96498 -1.563,2.88581 -2.2608,3.97631 l 10.0505,-0.044 c -1.1836,-1.39452 -2.2159,-1.58173 -2.3157,-4.30794 -0.1852,-5.04543 0,-13.76932 0,-19.08731 5.5705,0 8.3333,2.10662 11.1217,6.38191 0.7654,1.1736 1.7238,2.27409 2.3864,3.39348 l 7.0563,10.29186 c 0.862,1.25005 1.4216,2.26513 2.2964,3.37071 l 9.4428,0.003 c -0.3183,-0.39821 0,-0.10677 -0.4727,-0.43966 -0.095,-0.0666 -0.3571,-0.19606 -0.505,-0.26638 -3.9302,-1.85058 -5.4676,-4.74517 -8.0985,-8.68124 -0.1878,-0.28017 -0.3409,-0.45603 -0.5531,-0.75882 -2.4251,-3.47249 -8.0148,-12.24425 -11.2889,-13.58347"
       style="fill:#131517;fill-opacity:1;fill-rule:evenodd;stroke:none"
       id="path42"
       inkscape:connector-curvature="0" />
    <path
       d="m -1513.9005,194.29194 -12.2859,-0.0257 0,-37.88325 c 2.1258,-0.16725 9.285,-0.0479 11.9128,-0.0466 0.9006,0 2.9427,0.42583 3.5764,0.61301 5.3647,1.59071 8.5003,5.09702 10.2404,10.27321 2.3896,7.10555 1.6177,18.39381 -4.6282,23.56486 -2.1163,1.7526 -6.0174,3.50391 -8.8155,3.50391 z m -19.8633,3.98506 c 4.6087,0.003 19.2424,0.30909 23.1919,-0.48869 2.0232,-0.40956 4.371,-1.13195 5.9179,-2.08047 3.8401,-2.35311 5.5866,-3.64715 8.137,-7.73899 4.3611,-6.99417 4.2809,-17.95564 -0.059,-25.35387 -1.6562,-2.82575 -5.104,-6.23655 -8.1756,-7.69509 -4.567,-2.16613 -7.4487,-2.56815 -13.2572,-2.56815 -5.1331,0 -10.7259,-0.21099 -15.8044,0.0206 0.1929,0.58535 0.9682,0.93077 1.3863,1.48362 1.3925,1.84418 0.9743,6.13717 0.9743,8.52938 0,3.6771 0.1364,30.06512 -0.059,31.65688 -0.1364,1.11562 -0.1853,1.53398 -0.7012,2.47247 -1.0451,1.90711 -0.9841,0.46107 -1.5533,1.76135"
       style="fill:#131517;fill-opacity:1;fill-rule:evenodd;stroke:none"
       id="path44"
       inkscape:connector-curvature="0" />
    <path
       d="m -2173.7658,156.34081 c 3.4863,-0.0206 6.6459,-0.56284 10.5959,0.49496 6.3568,1.70364 6.5454,9.09963 2.4711,12.45637 -3.0994,2.55431 -8.9665,2.19121 -13.0683,1.8744 l 0,-14.82573 z m 11.5268,18.17414 c -0.8254,-0.25035 -0.3015,-0.0466 -0.5228,-0.38209 l 0.6571,0 c 0.8911,-0.34673 1.9563,-0.50366 2.838,-0.79538 5.4802,-1.8027 8.0544,-5.93356 7.351,-11.69379 -0.2964,-2.43853 -1.1494,-3.89838 -2.4423,-5.41866 -2.5956,-3.04897 -6.5518,-3.72118 -11.7582,-3.71377 -4.9437,0.008 -10.288,-0.34542 -15.4326,-0.14177 0.3141,0.97482 1.8294,0.92851 2.2349,3.81795 0.1955,1.39454 0.2827,36.11451 0.085,37.87465 -0.4073,3.63457 -1.7401,3.00386 -2.2727,4.21496 l 10.0482,0 c -0.034,-0.044 -0.093,-0.15695 -0.1132,-0.12196 l -0.7513,-0.65829 c -2.1585,-1.87948 -1.4499,-6.1196 -1.4499,-9.73659 0,-4.30668 0,-8.61462 0,-12.92146 9.2166,-0.0865 10.8736,6.86596 15.7177,13.07977 l 7.0229,10.31697 9.5735,0.0401 c -0.5025,-0.68595 -1.024,-0.62441 -1.7249,-0.96988 -2.6422,-1.30534 -3.8468,-3.27024 -5.5216,-5.68617 l -8.0634,-11.53172 c -2.6895,-4.16854 -4.7538,-4.80921 -5.476,-5.57304"
       style="fill:#131517;fill-opacity:1;fill-rule:evenodd;stroke:none"
       id="path46"
       inkscape:connector-curvature="0" />
    <path
       d="m -844.29931,156.37585 c 4.91745,-0.37822 15.80443,-1.05525 15.80109,6.38353 l 0,1.30642 c -0.003,4.42743 -4.36118,7.26284 -8.91841,7.26284 l -6.88268,-0.1886 0,-14.76431 z m -7.78657,-3.98616 c 1.16762,1.26237 2.13556,1.46209 2.34475,3.85301 0.17496,1.95739 0.0257,16.3171 0.0257,19.01712 0,4.06657 0.20326,15.49555 0,19.03212 -0.15438,2.63577 -1.6467,2.9059 -2.30615,3.98382 l 10.04743,0.001 c -0.70114,-1.01761 -1.99071,-1.01133 -2.29303,-4.38835 -0.16982,-1.94354 -0.0257,-16.33858 -0.0257,-19.01833 1.77843,-0.12324 3.57642,0.1621 5.06231,0.71369 l 3.53448,2.25003 1.30578,1.68468 c 2.6342,3.19112 7.85397,11.50172 10.64898,15.2858 0.50173,0.6822 2.01,2.85689 2.27065,3.47502 l 9.6517,-0.0314 c -0.56914,-0.69727 -3.11972,-1.05785 -5.11377,-3.5265 l -9.32365,-13.25808 c -0.39881,-0.56927 -0.84908,-1.11697 -1.16426,-1.64091 -2.40264,-3.98873 -4.48674,-4.50364 -5.64123,-5.49744 1.00011,-0.64196 7.08209,-1.00379 9.6903,-5.92876 2.11961,-4.00001 1.16761,-9.32056 -1.36367,-12.14632 -2.76259,-3.08048 -6.4903,-3.7527 -11.92878,-3.73885 -4.69566,0.0129 -10.61991,-0.53003 -15.4154,-0.12145"
       style="fill:#131517;fill-opacity:1;fill-rule:evenodd;stroke:none"
       id="path48"
       inkscape:connector-curvature="0" />
    <path
       d="m -1358.2266,156.41607 c 2.5055,-0.62942 8.7609,-0.1482 10.8805,0.51395 1.5888,0.49625 2.8818,1.33923 3.57,2.40701 2.6919,4.17849 0.8522,9.62996 -3.7856,11.25415 -3.4187,1.19866 -7.0401,0.57665 -10.7485,0.57793 l 0.085,-14.75304 z m -7.0564,-3.23262 c 0.4665,0.24777 0.2007,-0.0528 0.3636,0.47119 1.862,1.64957 1.1866,7.96878 1.1866,10.97047 0,3.64203 0.1647,28.12405 -0.1003,29.8553 -0.4405,2.90335 -1.579,2.75387 -2.2128,3.79409 l 10.0475,-0.0466 c -1.1803,-1.39452 -2.2578,-1.49757 -2.3157,-4.30545 l 0,-19.08602 c 5.3839,-0.005 8.5456,2.18347 11.1186,6.38705 2.1193,3.45866 7.4037,10.27424 9.4234,13.70279 0.6175,1.0465 1.5919,2.42721 2.3188,3.34684 l 9.4461,0.003 c -1.0292,-1.28394 -2.7114,-0.2362 -6.3007,-5.26653 l -9.1875,-13.2052 c -1.7368,-2.30666 -3.2162,-3.98261 -5.7215,-5.50292 2.7852,-1.0578 7.4582,-1.43958 9.8223,-6.04035 1.9585,-3.80927 1.0935,-9.13595 -1.3349,-11.91861 -2.7433,-3.14224 -6.5868,-3.84208 -11.842,-3.83084 l -15.5052,-0.15952 c 0.2444,0.55416 0.2007,0.2488 0.7878,0.83171"
       style="fill:#131517;fill-opacity:1;fill-rule:evenodd;stroke:none"
       id="path50"
       inkscape:connector-curvature="0" />
    <path
       d="m -1317.7763,156.33695 c 1.6948,-0.003 3.5572,-0.19837 5.4835,-0.16467 1.5665,0.0278 3.7566,0.29525 5.0593,0.6056 1.2123,0.28915 3.052,1.24243 3.6536,1.93744 2.3092,2.67846 2.1613,7.1194 -0.3765,9.95385 l -0.6175,0.51138 c -3.1712,2.5691 -6.8312,2.14809 -11.0861,2.14809 l -2.1163,-0.15953 0,-14.83216 z m 11.4497,18.18023 c -0.3023,-0.29877 -0.1363,0.3895 -0.2799,-0.37789 l 0.5179,9.6e-4 c 0.7621,-0.30264 2.1322,-0.5966 2.9877,-0.86933 0.817,-0.25859 2.007,-0.80019 2.7081,-1.22345 6.1236,-3.70893 5.7089,-11.89257 2.0777,-15.9868 -2.6245,-2.95891 -6.8763,-3.56325 -11.9322,-3.54941 l -15.2962,-0.15952 c 0.4438,0.91983 0.46,-0.018 1.5471,1.5843 0.4919,0.73137 0.7333,1.47367 0.7912,2.31052 0.1955,2.76272 0,15.60601 0,19.01326 0,4.49754 0.2084,14.97666 0,19.02458 -0.1261,2.45988 -1.1805,2.64835 -2.3126,3.98884 l 10.0474,-0.0301 c -0.5563,-0.95859 -2.0035,-1.03148 -2.293,-4.33061 -0.1724,-1.97746 -0.026,-16.38624 -0.026,-19.07594 4.0845,-0.005 6.4388,0.95102 8.5968,3.09044 1.2705,1.26011 6.41,8.60081 7.275,10.07825 l 7.1498,10.27174 9.4427,0 -1.0227,-0.66079 c -1.2641,-0.54652 -1.4602,-0.64074 -2.5858,-1.51517 -3.0845,-2.39079 -10.7229,-15.61488 -14.3572,-19.22315 -0.7654,-0.75869 -2.0133,-1.89564 -3.0523,-2.3607"
       style="fill:#131517;fill-opacity:1;fill-rule:evenodd;stroke:none"
       id="path52"
       inkscape:connector-curvature="0" />
    <path
       d="m -761.71358,198.277 8.60013,0 c -1.82371,-2.35437 -2.29971,-0.26883 -2.29971,-7.90356 l 0,-20.1502 c 0,-3.20367 -0.1904,-7.04799 0.0334,-10.17255 0.94556,0.72622 2.12913,2.64565 2.83669,3.51017 l 22.68403,28.26744 c 0.69779,0.86812 5.51901,7.12212 6.00787,7.19877 0.23929,-2.38579 0.0386,-31.58778 0.0386,-36.64077 0,-2.85213 -0.48887,-6.22657 0.78141,-8.44028 0.47291,-0.82527 1.06778,-0.90311 1.55355,-1.59428 l -8.69353,0.005 c 0.46004,1.25754 2.38642,0.40815 2.37047,6.48387 0,3.42462 0.19812,25.59776 -0.11578,26.95081 l -26.80721,-33.41216 -7.03371,-0.0278 c 0.28611,0.89958 1.76248,1.10573 2.18368,3.88582 0.26707,1.78147 0.35712,35.8256 0.10034,37.78298 -0.13894,1.04401 -0.44384,2.65839 -1.28957,3.3657 -0.76546,0.63696 -0.50816,-0.1055 -0.94891,0.88947"
       style="fill:#131517;fill-opacity:1;fill-rule:evenodd;stroke:none"
       id="path54"
       inkscape:connector-curvature="0" />
    <path
       d="m -1578.424,198.277 8.5872,-10e-4 c -0.5596,-1.03395 -2.3092,-1.02391 -2.3092,-5.10448 l 0.049,-33.1431 c 1.2993,1.55021 2.6952,3.0062 3.898,4.76899 l 13.6882,17.09992 c 1.4182,1.97233 6.1816,7.41598 7.8411,9.70252 l 1.9619,2.5064 c 0.7171,0.87314 1.2994,1.58047 2.0293,2.45487 0.698,0.83673 1.2641,2.02268 2.1163,2.45234 0.093,-3.84437 -0.1698,-41.155 0.1106,-42.84706 0.4953,-3.0139 1.9426,-2.77044 2.2578,-3.81442 l -8.6966,0 c 0.3571,0.62458 2.3542,1.73258 2.3542,4.06433 l -0.026,29.24113 c -0.5596,-0.46864 -1.206,-1.37194 -1.6948,-1.95237 l -1.232,-1.56524 c -0.1183,-0.15721 -0.2637,-0.37339 -0.3826,-0.53646 -1.0775,-1.45373 -2.3414,-2.68875 -3.3834,-4.08939 -0.3474,-0.46249 -0.3859,-0.55931 -0.7945,-1.06683 l -14.2864,-17.81585 c -0.5918,-0.71624 -1.0871,-1.33182 -1.6884,-2.05418 l -3.377,-4.22514 -7.0821,0 c 0.6463,1.43605 1.7175,1.05298 2.2449,3.83436 0.1544,0.81789 0.283,35.24393 0.09,37.89853 -0.059,0.78522 -0.2993,1.77898 -0.6754,2.42852 -0.5501,0.9485 -1.0905,0.94351 -1.6051,1.76385"
       style="fill:#131517;fill-opacity:1;fill-rule:evenodd;stroke:none"
       id="path56"
       inkscape:connector-curvature="0" />
    <path
       d="m -1102.2969,153.01525 0.4083,0.41971 c 1.8688,2.22852 1.3058,6.94605 1.3058,10.63084 l 0,24.2548 c 0,1.83802 0.1286,4.19239 0,5.96758 -0.2264,2.79532 -1.534,2.63577 -2.2995,3.96746 l 8.6097,0.018 c -0.6368,-1.07414 -1.4633,-0.73998 -2.0519,-3.00262 -0.5597,-2.16593 -0.2959,-32.63055 -0.2471,-35.17104 0.5725,0.26759 0.7174,0.53775 1.1033,1.0816 l 6.8536,8.61495 c 0.7045,0.84779 1.2351,1.46111 1.9524,2.34428 l 17.6634,22.10128 c 0.6818,0.99375 1.2929,1.68601 1.9683,2.49631 0.6047,0.72491 1.4247,1.60811 1.9907,2.31668 0.2766,-2.14202 0.054,-31.95728 0.054,-36.85458 0,-1.88954 -0.1158,-4.34415 0.1209,-6.03394 0.4214,-2.97885 1.9652,-3.05056 2.2449,-3.76263 l -8.6933,-0.054 c 0.8007,1.08031 1.2253,0.70723 1.9071,2.35169 0.7624,1.84932 0.431,10.75659 0.431,13.09606 0,5.92973 0,11.85846 0,17.78832 -0.7235,-0.36434 -7.1238,-8.70383 -7.6289,-9.31329 l -16.7886,-20.91146 c -2.9427,-3.59829 -1.7076,-3.00908 -5.3484,-3.00908 -1.2672,0 -2.988,-0.0965 -4.2003,0.0527 l 0.6561,0.61078"
       style="fill:#131517;fill-opacity:1;fill-rule:evenodd;stroke:none"
       id="path58"
       inkscape:connector-curvature="0" />
    <path
       d="m -2051.4824,152.35174 c 0.7467,1.53927 1.709,1.01408 2.2475,4.02025 0.1827,1.01409 0.2815,35.96511 0.062,37.85588 -0.3644,3.13078 -1.5716,2.98502 -2.2578,4.04913 l 8.5973,0 c -0.398,-0.75754 -2.3105,-1.32668 -2.3105,-4.35817 0,-4.81178 -0.1827,-31.37429 0.054,-33.89451 l 2.9952,3.60313 c 0.3139,0.38432 0.6093,0.88059 0.9373,1.29386 l 7.872,9.66632 c 1.612,2.19731 3.6446,4.41488 4.8485,6.16997 1.2911,1.8805 7.431,8.89721 8.8857,11.07821 0.6181,0.92341 1.2376,1.54028 1.9184,2.37822 0.7164,0.88196 3.3709,4.43111 4.0669,4.78538 0.1312,-4.09817 -0.1544,-41.43003 0.1209,-43.00307 0.4886,-2.76753 1.6781,-2.50864 2.2436,-3.64589 l -8.695,0.0206 c 0.1723,0.52648 2.3594,1.47238 2.3607,4.22996 0,5.21635 0.2264,25.47201 -0.044,29.05523 -0.6607,-0.60684 -1.172,-1.33802 -1.7689,-2.05289 l -1.6143,-2.11439 c -1.0894,-1.51385 -3.4838,-4.0669 -4.2588,-5.25785 l -4.2065,-5.12697 c -0.3767,-0.47373 -0.3931,-0.62554 -0.7701,-1.09801 -0.353,-0.44479 -0.5277,-0.65094 -0.8341,-1.02144 l -13.3686,-16.63391 -7.0821,0"
       style="fill:#131517;fill-opacity:1;fill-rule:evenodd;stroke:none"
       id="path60"
       inkscape:connector-curvature="0" />
    <path
       d="m -2102.0882,160.07192 c 0.3854,-0.17831 0.2033,-0.6947 0.1261,-1.19352 l -0.4032,-4.78765 c -0.1467,-0.70983 0.1467,-0.72236 -2.1773,-1.21992 -7.8946,-1.68851 -14.9656,-1.99628 -22.305,0.99865 -3.8504,1.57174 -7.2449,4.55157 -9.6296,7.73014 -4.092,5.46014 -5.1688,13.60231 -3.2905,20.73199 0.5732,2.17982 1.5654,4.33316 2.5819,5.99275 3.4926,5.70248 9.0229,9.20763 15.664,10.28684 2.1044,0.34297 5.6811,0.65708 8.2075,0.44723 2.495,-0.20738 13.0081,-1.48118 14.5295,-2.71491 -1.1308,-2.34935 -0.617,-7.94753 -0.617,-11.19392 0,-9.95027 0.6497,-6.92349 2.3708,-9.49774 l -10.1648,-0.018 c 0.7876,0.87447 1.5101,0.71979 2.152,2.78395 0.3834,1.23374 0.229,14.34235 0.2162,14.38128 -0.6157,0.84426 -3.8471,1.65835 -4.8447,1.90461 -5.5627,1.37566 -12.4287,0.27134 -16.9262,-2.78279 -5.561,-3.77403 -8.5281,-10.19267 -7.9065,-19.07357 0.8995,-12.83235 12.3677,-19.1567 23.0314,-17.11377 1.8541,0.3567 3.5391,0.9044 5.1346,1.75381 0.7423,0.39462 1.4383,0.71979 2.1695,1.18486 0.6309,0.40202 1.543,1.18451 2.0808,1.39935"
       style="fill:#131517;fill-opacity:1;fill-rule:evenodd;stroke:none"
       id="path62"
       inkscape:connector-curvature="0" />
    <path
       d="m -710.88801,173.95435 c 0,-3.27024 1.57594,-8.06432 3.45112,-10.764 4.37713,-6.30569 12.55272,-8.98543 20.0048,-7.41624 4.02335,0.84811 6.57393,2.5794 9.45873,4.52037 l -0.69779,-6.75661 c -1.29291,-0.8243 -8.95391,-1.98375 -11.09282,-1.98375 -7.00155,10e-4 -13.60455,1.33408 -19.15572,5.86829 -2.52459,2.0603 -4.29042,4.77027 -5.78583,7.6549 -2.85933,5.52511 -2.86885,13.90623 -0.47934,19.73562 0.4567,1.11687 1.42156,3.07045 2.01978,3.94865 1.76582,2.59808 3.42204,4.25013 5.85349,6.09569 0.99059,0.75007 2.5987,1.57797 3.84993,2.10062 5.75366,2.40837 11.65553,2.44982 17.75989,1.76009 4.23896,-0.47994 8.78333,-1.96238 10.70996,-2.19356 -0.26707,-0.8279 -0.60155,-1.28648 -0.63372,-2.40714 l 0,-8.96768 c 0,-4.11188 -0.52411,-7.83205 2.38334,-9.454 l -10.17607,-0.0414 c 0.95199,1.117 2.37021,1.75543 2.37021,3.89871 l 0,13.05941 c 0,1.20104 -9.87684,4.72883 -18.90486,0.84677 -3.40918,-1.46613 -5.66695,-3.36446 -7.63836,-6.35577 -0.75593,-1.14705 -1.05183,-1.75512 -1.6274,-3.04034 -1.51805,-3.4021 -1.67243,-6.51796 -1.67243,-10.10853"
       style="fill:#131517;fill-opacity:1;fill-rule:evenodd;stroke:none"
       id="path64"
       inkscape:connector-curvature="0" />
    <path
       d="m -2082.4871,176.26873 c 0.069,-0.47116 6.4939,-16.76446 6.9061,-17.19062 l 6.8582,17.19417 -13.7643,-0.003 z m 10.3709,-22.39925 c -0.932,-2.22369 -0.3556,-1.51646 -7.597,-1.51774 0.4549,1.24886 1.3405,1.2186 0.9914,3.00393 -0.2367,1.20994 -2.9124,7.48669 -3.4766,8.81691 l -11.9802,29.08165 c -2.3016,5.51652 -2.0803,2.88829 -3.3657,5.02277 l 8.5919,-0.003 c -0.4647,-1.03896 -1.118,-0.85178 -1.1983,-2.12066 -0.054,-0.85682 0.3126,-1.84304 0.6078,-2.5617 l 5.3746,-13.33083 17.1617,0.0129 c 0.6607,2.19217 6.3053,14.26181 5.7892,16.06842 -0.3505,1.22242 -0.7362,1.07038 -1.1597,1.93598 l 10.2101,0 -0.3883,-0.49496 c -1.3253,-1.42344 -2.1217,-1.33926 -3.5352,-5.06177 -0.8316,-2.18854 -1.7412,-4.36071 -2.6494,-6.50024 -1.8381,-4.33547 -3.553,-8.62331 -5.332,-12.93882 l -2.706,-6.46136 c -0.8632,-2.26904 -1.7627,-4.29911 -2.6396,-6.48291 -0.8632,-2.15067 -1.7627,-4.23382 -2.6987,-6.46746"
       style="fill:#131517;fill-opacity:1;fill-rule:evenodd;stroke:none"
       id="path66"
       inkscape:connector-curvature="0" />
    <path
       d="m -1602.7192,159.11735 0.3247,-0.26275 0.126,0.56541 c 0.1699,1.19352 5.9276,14.43657 6.5482,16.85227 l -13.7684,0 c 0.1183,-0.81146 1.3058,-3.56551 1.6596,-4.3869 l 3.4284,-8.54451 c 0.5627,-1.44215 1.145,-2.78266 1.682,-4.22352 z m -3.9946,-6.76561 c 1.8106,2.26387 0.8234,3.95014 -0.1235,6.12592 l -11.9483,29.09794 c -0.8684,2.0805 -1.5597,3.63205 -2.4088,5.80425 -1.8109,4.64088 -2.0391,2.882 -3.3739,4.89213 l 8.613,-0.005 c -0.5499,-1.14952 -2.0422,-1.31033 -0.5756,-4.69116 l 3.5859,-8.91239 c 0.5501,-1.43226 1.3058,-2.98762 1.7015,-4.40468 l 16.8882,0 c 0.6852,0.14949 1.8559,3.74135 2.0777,4.31803 l 3.6183,9.05935 c 1.1321,3.34313 0.2264,3.02527 -0.6401,4.63839 l 10.131,0.003 c -0.7526,-1.19475 -2.1579,-1.38947 -3.6374,-4.90721 -0.8138,-1.93975 -1.5986,-3.79033 -2.3928,-5.81178 -1.5407,-3.9185 -3.2196,-7.60702 -4.847,-11.74404 -0.759,-1.9413 -1.6433,-4.03408 -2.4474,-5.96769 -0.952,-2.28767 -6.693,-16.54833 -7.3072,-17.49453 l -6.9149,0"
       style="fill:#131517;fill-opacity:1;fill-rule:evenodd;stroke:none"
       id="path68"
       inkscape:connector-curvature="0" />
    <path
       d="m -923.84586,174.83657 c -2.16129,0 -3.23216,0.0813 -5.49328,-0.59822 -0.43097,-0.12942 -0.95843,-0.33417 -1.39583,-0.49498 -0.67541,-0.25241 -1.17379,-0.21227 -1.17379,-0.90826 l 0,-16.49816 c 4.3707,0 10.95749,-0.54645 14.0772,1.90207 4.02669,3.16217 4.36761,9.94257 0.36356,13.87373 -1.27696,1.2511 -4.04598,2.72382 -6.37786,2.72382 z m -15.79157,23.44043 10.04099,-0.002 c -0.63346,-1.13823 -1.75604,-0.95856 -2.21918,-3.69233 -0.247,-1.44606 -0.0926,-15.38381 -0.0901,-17.51325 1.16118,0.19709 2.18059,0.64582 3.29674,0.89187 5.57999,1.23502 11.44326,0.61687 15.90401,-3.12939 6.75737,-5.6737 5.5576,-20.21448 -6.03026,-22.04869 -5.50949,-0.87062 -14.59849,-0.43226 -20.94728,-0.43097 0.28303,0.53775 1.04205,0.99381 1.43134,1.48395 0.50816,0.63939 0.79119,1.57016 0.88124,2.26131 l 0.0386,38.00649 c -0.0386,0.91966 -0.30233,1.81914 -0.67541,2.44604 -0.38285,0.64957 -0.96177,1.03274 -1.51496,1.60311 -0.0283,0.0301 -0.0798,0.0803 -0.11578,0.12428"
       style="fill:#131517;fill-opacity:1;fill-rule:evenodd;stroke:none"
       id="path70"
       inkscape:connector-curvature="0" />
    <path
       d="m -1226.806,174.83657 c -1.235,0 -3.8754,-0.87322 -4.866,-1.24887 -1.0742,-0.40588 -0.7397,-0.84167 -0.7269,-2.24393 l 0,-14.99686 c 3.438,-0.0641 9.3301,-0.19092 11.9965,0.75645 1.6112,0.57025 2.6566,1.42349 3.5538,2.79133 0.743,1.13342 1.6852,2.71129 1.6852,4.54291 0,3.40853 -0.3568,5.46016 -2.9877,7.90641 -2.5956,2.41087 -5.5416,2.49256 -8.6549,2.49256 z m -11.0187,-18.2346 0,37.50278 c 0,1.52896 -0.7171,2.75138 -1.7592,3.63959 -0.1595,0.13817 -0.064,0.0427 -0.2187,0.18603 l 9.7161,0.34673 c -0.4277,-0.80529 -0.6176,-0.19966 -1.4183,-1.52389 -0.4502,-0.74755 -0.6432,-1.25762 -0.8009,-2.19104 -0.2419,-1.40458 -0.093,-15.39875 -0.093,-17.48445 2.9718,0.3393 2.0713,1.42607 9.7001,1.42478 1.4666,0 4.2261,-0.70854 5.2682,-1.13823 1.6178,-0.66575 3.0103,-1.46239 4.1296,-2.40217 2.2868,-1.92329 4.2003,-5.64091 4.2003,-8.65738 0,-4.51782 -0.672,-7.82567 -4.2646,-11.00426 -2.4058,-2.12815 -6.9535,-2.94862 -10.2662,-2.94862 l -16.5506,0.0154 c 0.5468,0.75385 2.3576,1.58816 2.3576,4.23381"
       style="fill:#131517;fill-opacity:1;fill-rule:evenodd;stroke:none"
       id="path72"
       inkscape:connector-curvature="0" />
    <path
       d="m -1244.4051,152.36332 -8.8605,-0.0103 c 0.3697,0.63972 1.1192,0.95105 1.6595,1.80558 1.1288,1.785 0.6978,7.68738 0.6978,10.28028 0,4.85197 0,9.70265 0,14.55462 0,4.93371 0.1441,8.71152 -2.5279,12.00813 -4.7407,5.84948 -15.6822,5.86831 -20.6866,0.21741 -2.7981,-3.16091 -2.9589,-6.64344 -2.9589,-11.85205 l 0,-21.83129 c -0.026,-4.05919 1.6402,-4.16594 2.3383,-5.1826 l -10.1053,0 c 0.2341,0.77027 0.3602,0.40203 0.997,1.01022 0.2393,0.22745 0.7106,0.93978 0.8393,1.21475 0.4503,0.98128 0.5179,2.23753 0.5115,3.51532 -0.026,3.91991 -0.1544,22.78231 0.095,25.19447 0.2959,2.84809 0.3311,4.51521 1.4537,6.92112 5.3613,11.49418 25.1122,11.17129 30.9623,2.74128 0.3538,-0.50754 0.4794,-0.80153 0.7881,-1.2563 0.3474,-0.51637 0.521,-0.88196 0.8136,-1.44729 1.0099,-1.93855 1.3765,-4.30169 1.4699,-6.96131 0.2668,-7.81448 0.1673,-16.94789 0.157,-25.00222 0,-5.48139 1.1866,-4.08201 2.3573,-5.91846"
       style="fill:#131517;fill-opacity:1;fill-rule:evenodd;stroke:none"
       id="path74"
       inkscape:connector-curvature="0" />
    <path
       d="m -1654.6707,158.27535 c 0.2863,-0.11553 0.2992,0.3406 0.1852,-0.36181 -0.026,-1.00989 -0.5146,-4.58794 -0.8264,-5.55923 l -27.5307,-0.003 c 0.4374,0.96486 2.0069,0.70756 2.3156,4.05435 l 0,37.89465 c -0.2161,2.39332 -1.2028,2.64457 -2.2964,3.97502 l 29.2804,-0.005 2.0743,-6.68747 c -1.0871,0.33796 -2.0293,1.62319 -4.3835,2.28529 -2.6116,0.73749 -15.9365,0.42464 -19.2363,0.42464 l 0,-19.45537 c 1.9361,-0.001 13.1962,-0.11321 14.5758,0.0726 1.7208,0.23131 2.1484,0.77768 3.3225,1.44472 l -0.3474,-5.72261 c -0.7109,-0.0641 -1.1161,0.19246 -1.9683,0.22256 -4.0395,0.14692 -11.3951,-0.005 -15.5857,-0.003 l 0,-14.51186 c 3.7596,-0.003 7.5194,-0.001 11.2791,-0.001 4.3195,0 6.1527,-0.34285 9.1245,1.9384"
       style="fill:#131517;fill-opacity:1;fill-rule:evenodd;stroke:none"
       id="path76"
       inkscape:connector-curvature="0" />
    <path
       d="m -467.89079,192.38105 0.0926,-0.5377 -0.36664,0.0967 c -3.40918,2.30535 -5.11043,2.35185 -10.29186,2.35185 -4.2261,0 -8.46814,0.0365 -12.69115,-0.003 l 0,-19.4468 14.502,0.0592 c 2.28659,0.28012 1.96832,0.98352 3.37367,1.47624 l -0.39546,-5.7213 c -0.74616,-0.12967 -0.89745,0.15309 -1.79156,0.19966 l -15.68865,-0.0129 0,-14.49835 c 2.27707,-0.0337 15.08401,-0.21844 16.90772,0.18629 1.94902,0.43192 2.5601,1.45081 3.77248,1.8805 -0.0617,-1.44729 -0.59487,-4.50398 -0.92935,-6.05933 l -27.53407,0 c 0.7881,1.16974 1.80108,0.91854 2.28351,3.77423 0.14408,0.86547 0.247,35.45985 0.0643,37.96746 -0.0669,0.93473 -0.25729,1.6106 -0.72352,2.45361 -0.79453,1.43725 -1.14496,0.91461 -1.57594,1.72995 l 29.28034,0 c 0.33449,-1.13318 1.67886,-4.98887 1.71102,-5.89594"
       style="fill:#131517;fill-opacity:1;fill-rule:evenodd;stroke:none"
       id="path78"
       inkscape:connector-curvature="0" />
    <path
       d="m -1925.0024,191.78934 -0.2315,-0.0893 c -1.0678,0.87067 -2.7788,1.84054 -4.2295,2.2074 -2.5472,0.64198 -16.2421,0.4912 -18.9746,0.36055 l 0,-19.4016 14.4882,0.0304 c 2.1934,0.28529 2.01,0.93335 3.3834,1.50004 l -0.4793,-5.6245 c -0.2959,-0.17084 -0.1853,-0.15335 -0.8651,-0.0466 -1.4187,0.22616 -1.8142,0.12453 -3.2967,0.12453 -3.6786,0 -10.1447,0.16827 -13.2305,-0.0327 l 0,-14.44754 c 1.6544,-0.10806 15.0533,-0.19991 16.7343,0.14049 2.1322,0.43226 2.9267,1.47624 3.6631,1.69978 l 0.064,-1.03017 -0.7171,-4.82817 -27.5315,0.034 c 1.2629,1.46113 1.8909,1.21861 2.2817,3.92861 0.2393,1.6708 0.082,27.90174 0.082,31.63305 0,2.49002 0.486,6.85829 -0.8409,8.68878 -0.7461,1.03142 -1.0852,0.9083 -1.4709,1.64072 l 29.2777,0 c 0.3088,-1.85809 1.6081,-4.4901 1.8943,-6.48765"
       style="fill:#131517;fill-opacity:1;fill-rule:evenodd;stroke:none"
       id="path80"
       inkscape:connector-curvature="0" />
    <path
       d="m -1992.2965,159.18394 c 1.2024,-0.90602 1.6395,-1.90112 3.6068,-2.47391 2.3206,-0.67702 15.9166,-0.37308 18.9028,-0.37308 -0.2547,0.92465 -3.9096,6.73376 -4.6344,7.90093 l -20.6141,34.03912 32.5743,0 c 0.7361,-1.13445 3.6821,-5.7565 3.9436,-6.62963 -1.9071,0.70355 -2.7137,1.75257 -5.3258,2.23878 -3.6194,0.67085 -18.2745,0.40453 -22.5747,0.40579 0.2316,-0.90708 2.6056,-4.36699 3.1395,-5.3193 l 16.0054,-25.98329 c 0.6057,-0.97129 6.3071,-9.67275 6.3308,-10.63761 l -30.0576,0 c -0.2084,2.01141 -1.3807,5.1485 -1.2966,6.83217"
       style="fill:#131517;fill-opacity:1;fill-rule:evenodd;stroke:none"
       id="path82"
       inkscape:connector-curvature="0" />
    <path
       d="m -459.22942,174.14025 c 0,-2.10307 0.92627,-5.67982 1.61119,-7.34325 0.79453,-1.93196 3.02966,-5.56177 4.4996,-6.50767 0.53389,-0.34413 0.6947,-0.58663 1.24146,-0.99509 5.55117,-4.13313 14.09341,-4.79922 20.3681,-1.86445 0.72686,0.33804 1.03562,0.6169 1.77534,0.82176 0.0849,-1.51643 -0.42762,-4.24249 -0.63989,-5.86186 -5.40657,-1.1144 -10.08294,-1.17971 -15.48616,-0.1145 -4.29994,0.84941 -6.95344,2.22883 -10.34332,4.55801 -1.68195,1.15719 -3.32556,2.53277 -4.52199,4.42614 -0.42119,0.66962 -0.78141,1.07776 -1.22215,1.76377 -4.43837,6.92127 -4.45432,17.96058 0.003,24.84017 2.7981,4.31425 6.48721,7.17615 11.41444,9.13354 1.64979,0.65453 2.82383,0.97366 4.60226,1.37442 4.26804,0.96111 9.57787,0.90206 13.91331,0.35556 1.17713,-0.1482 2.15486,-0.27266 3.34485,-0.5616 l 1.33795,-5.92361 c -1.43752,0.65333 -2.39286,1.20986 -4.03313,1.72497 -4.99155,1.57041 -12.42098,1.3983 -17.05875,-0.96363 -1.24146,-0.63066 -1.91043,-0.98621 -2.9427,-1.71992 -2.01669,-1.43597 -3.17453,-2.58426 -4.56393,-4.58181 -2.59535,-3.73023 -3.29982,-7.93636 -3.29982,-12.56095"
       style="fill:#131517;fill-opacity:1;fill-rule:evenodd;stroke:none"
       id="path84"
       inkscape:connector-curvature="0" />
    <path
       d="m -1206.6404,158.97519 c 1.235,-0.99733 2.1132,-2.63824 4.6604,-2.63824 l 10.1182,0 0,37.39465 c 0,0.93347 -0.247,1.95864 -0.6883,2.71242 -0.6337,1.08422 -1.1642,0.99753 -1.6274,1.83048 l 10.0441,0.002 c -0.7621,-1.15205 -1.7077,-0.76129 -2.2094,-3.55538 -0.2735,-1.50634 -0.095,-35.88568 -0.1003,-38.33321 l 9.8511,-0.0528 c 3.3127,0 3.4768,1.98505 4.9949,2.66205 0,-0.78378 -0.7205,-5.81169 -0.9842,-6.64469 l -33.1977,-0.0103 -0.8619,6.63341"
       style="fill:#131517;fill-opacity:1;fill-rule:evenodd;stroke:none"
       id="path86"
       inkscape:connector-curvature="0" />
    <path
       d="m -406.70878,194.61981 c -0.43432,-0.36809 -0.27016,-1.14322 -0.26707,-2.19353 0.003,-5.03913 -0.19298,-34.99389 0.11321,-36.09576 1.4442,-0.20455 3.94306,-0.0576 5.49971,-0.0576 0.6561,0 4.96582,-0.23516 5.1395,0.26245 2.29971,-0.12325 2.99107,1.75509 4.1682,2.48517 0.0257,-1.00508 -0.68184,-5.69495 -0.97773,-6.66753 l -33.18147,-0.0103 -0.93604,6.70517 c 0.82669,-0.45124 1.28648,-1.51645 2.42193,-2.10437 1.89113,-0.97868 9.70651,-0.60432 12.41764,-0.60689 0,2.54402 0.19555,36.94741 -0.12607,38.59447 -0.47266,2.42348 -1.38606,2.0453 -2.18702,3.34558 l 10.04743,-0.0592 c -0.54985,-0.73996 -2.17081,-1.38699 -2.13222,-3.59814"
       style="fill:#131517;fill-opacity:1;fill-rule:evenodd;stroke:none"
       id="path88"
       inkscape:connector-curvature="0" />
    <path
       d="m -809.31677,156.54922 c 0.1518,-0.49885 4.48982,-0.26633 5.12663,-0.26633 1.6467,0 3.9302,-0.12916 5.49971,0.0466 0.38286,1.34536 0.0978,30.01361 0.12608,36.84805 0.003,1.02265 0.0335,0.81784 -0.2187,1.13069 -0.21099,2.99007 -1.47303,2.87824 -2.16773,3.96872 l 10.03148,-0.002 -1.33151,-1.35932 c -0.49864,-0.544 -0.69805,-1.00757 -0.87481,-1.96366 -0.2928,-1.57167 -0.10292,-36.12587 -0.10549,-38.61457 2.87838,0.001 5.76344,0.0129 8.64182,-0.001 4.47052,-0.0232 3.95593,0.99895 6.14938,2.65591 l -0.90697,-6.64594 -31.19076,0.005 c -0.32806,-0.002 -0.82978,-0.0311 -1.13519,-0.0129 -0.92318,0.054 -0.89745,0.0427 -1.06135,0.906 -0.0437,0.23748 -0.0849,0.64936 -0.11836,0.90568 -0.0798,0.58568 -0.12865,0.96005 -0.21098,1.63319 -0.11579,0.88222 -0.41502,2.28415 -0.43097,3.23519 1.26718,-0.72879 1.92972,-2.63569 4.18106,-2.46876"
       style="fill:#131517;fill-opacity:1;fill-rule:evenodd;stroke:none"
       id="path90"
       inkscape:connector-curvature="0" />
    <path
       d="m -516.53912,212.94971 0.37308,0 c 0.44075,-0.38319 2.11961,-1.1885 2.84956,-1.63952 9.39132,-5.83188 7.80894,-11.82457 7.80894,-24.48212 l 0,-27.61424 c 0,-1.60167 -0.11578,-2.95986 0.33449,-4.30166 0.50507,-1.4936 1.44729,-1.66697 2.02312,-2.54659 l -10.14391,-0.0103 c 0.67206,0.87836 1.27362,0.89958 1.83632,2.17737 0.88459,2.01365 0.52746,9.83451 0.52746,12.33191 0,3.32942 0.18011,31.24006 -0.12607,33.81804 -0.64968,5.47507 -3.676,7.38596 -8.46171,8.71263 0.20326,0.99504 2.03573,2.07172 2.9782,3.55545"
       style="fill:#131517;fill-opacity:1;fill-rule:evenodd;stroke:none"
       id="path92"
       inkscape:connector-curvature="0" />
    <path
       d="m -776.12218,152.37811 c 0.28302,0.49272 -0.23157,-0.0864 0.32471,0.4699 1.03253,1.03143 1.67886,1.19867 1.87517,3.56549 0.26039,3.18854 0.28612,34.98635 0,37.70633 -0.33448,3.25642 -1.56951,3.01896 -2.24491,4.15341 l 9.96689,0.003 c -0.99702,-1.50505 -1.74627,-0.58669 -2.23204,-4.27151 -0.23157,-1.75507 -0.16982,-36.12092 0.0669,-37.78529 0.44075,-3.10459 1.88161,-2.7653 2.20967,-3.86974 l -9.97667,0.0278"
       style="fill:#131517;fill-opacity:1;fill-rule:evenodd;stroke:none"
       id="path94"
       inkscape:connector-curvature="0" />
    <path
       d="m -2006.8134,152.38583 c 1.1633,1.63062 1.8407,0.99381 2.2151,4.00901 0.2599,2.09277 0.2802,35.52011 0.026,37.7589 -0.3756,3.25892 -1.3634,2.66343 -2.2717,4.117 l 10.0534,0.005 c -0.6407,-1.03896 -1.843,-0.63568 -2.2791,-4.13455 -0.2419,-1.9448 -0.2265,-35.79665 0.026,-37.74537 0.4207,-3.37058 1.8618,-2.86178 2.2174,-4.04663 l -9.979,0.0355"
       style="fill:#131517;fill-opacity:1;fill-rule:evenodd;stroke:none"
       id="path96"
       inkscape:connector-curvature="0" />
    <path
       d="m -1169.3131,152.35174 0.714,0.92338 c 1.042,1.01406 1.2641,1.23889 1.4987,3.12839 0.2864,2.30409 0.1312,27.32898 0.1312,31.54398 0,2.37194 0.3636,6.67363 -0.8135,8.61964 -0.2187,0.35932 -0.4601,0.67718 -0.7462,0.92092 -0.5501,0.46859 -0.4729,0.20969 -0.8362,0.78895 l 10.0539,0 c -0.3474,-0.55777 -0.4987,-0.51004 -0.9489,-0.91961 -0.8972,-0.81663 -1.1772,-2.05539 -1.3475,-3.3519 -0.2606,-1.98124 -0.2033,-35.75394 0.075,-37.79045 0.431,-3.16955 1.9007,-2.99266 2.1999,-3.85687 l -9.98,-0.005"
       style="fill:#131517;fill-opacity:1;fill-rule:evenodd;stroke:none"
       id="path98"
       inkscape:connector-curvature="0" />
    <path
       d="m -1752.2633,152.35174 c 0.283,0.58697 1.3027,0.93108 1.8945,2.15581 0.3054,0.63199 0.6111,2.48131 0.6111,3.39986 l 0,34.70482 c 0,0.97114 -0.2895,2.77144 -0.563,3.44988 -0.431,1.07038 -1.0163,1.31033 -1.6691,1.96114 l 9.8061,0.21973 c -0.431,-0.74881 -0.9744,-0.75004 -1.5404,-1.67472 -0.3765,-0.61182 -0.5854,-1.5817 -0.7109,-2.5101 -0.2059,-1.50385 -0.1441,-36.3104 0.062,-37.71491 0.4824,-3.31559 1.7818,-2.98883 2.2128,-3.99164 l -10.102,0"
       style="fill:#131517;fill-opacity:1;fill-rule:evenodd;stroke:none"
       id="path100"
       inkscape:connector-curvature="0" />
    <path
       d="m -1986.2937,121.71609 0.2598,0.41103 c 0.026,0.045 0.044,0.0991 0.062,0.14949 0.1415,0.38947 0.1801,1.45982 0.608,1.67338 4.0478,0.34156 6.3182,-0.4284 10.21,-0.49015 2.5807,-0.0401 5.4779,-0.0376 8.0709,-0.43707 0.9497,-0.14563 1.4939,-0.49499 2.5241,-0.58664 l 1.0011,-0.13096 0.4107,0.0355 c 0.2879,-0.34187 -0.5249,-0.31164 1.8018,-0.42711 l 6.0192,-0.47888 0.4884,0.0895 c 0.2573,-0.39335 -0.3718,-0.27885 0.8205,-0.58663 0.7189,-0.185 0.5719,-0.10807 1.0564,0.0286 0.6145,-0.56379 2.3708,-0.77511 3.1977,-0.83266 1.1244,-0.0769 2.4636,-0.39465 3.5265,-0.10936 0.175,-0.18113 -0.2601,-0.0844 0.5038,-0.3644 l -40.641,0 0.08,2.05644"
       style="fill:#910406;fill-opacity:1;fill-rule:evenodd;stroke:none"
       id="path102"
       inkscape:connector-curvature="0" />
    <path
       d="m -406.70878,194.61981 -0.0875,-38.15228 10.57154,0.0679 c -0.17239,-0.49754 -4.48339,-0.26245 -5.1395,-0.26245 -1.55664,0 -4.0555,-0.14691 -5.49971,0.0576 -0.30541,1.10187 -0.11064,31.05663 -0.11321,36.09576 -0.003,1.05031 -0.16724,1.82544 0.26707,2.19355"
       style="fill:#949596;fill-opacity:1;fill-rule:evenodd;stroke:none"
       id="path104"
       inkscape:connector-curvature="0" />
    <path
       d="m -798.78357,194.30827 c 0.25215,-0.31284 0.22128,-0.10806 0.2187,-1.13068 -0.0283,-6.83444 0.2573,-35.5027 -0.12607,-36.84805 -1.56951,-0.17599 -3.85302,-0.0466 -5.49971,-0.0466 -0.63681,0 -4.9756,-0.2326 -5.12664,0.2663 l 10.56511,-0.0602 -0.0335,37.81921"
       style="fill:#9e9fa0;fill-opacity:1;fill-rule:evenodd;stroke:none"
       id="path106"
       inkscape:connector-curvature="0" />
    <path
       d="m -1981.2083,124.45372 1.2014,0.003 c 1.1858,-0.84939 6.2903,-0.65449 8.0266,-0.70242 1.3606,-0.0376 4.4865,-0.21716 5.7927,-0.59788 0.7362,-0.21613 1.1671,-0.24495 1.6285,-0.71979 -1.0302,0.0916 -1.5744,0.44093 -2.5241,0.58664 -2.593,0.39945 -5.4902,0.39688 -8.0709,0.43707 -3.8918,0.0618 -6.1622,0.83171 -10.21,0.49015 -0.4271,-0.21356 -0.466,-1.28391 -0.608,-1.67338 -0.026,-0.0504 -0.044,-0.10446 -0.062,-0.14949 l -0.2598,-0.41103 c 0.046,3.73015 2.1283,2.51283 5.0854,2.73763"
       style="fill:#a52d31;fill-opacity:1;fill-rule:evenodd;stroke:none"
       id="path108"
       inkscape:connector-curvature="0" />
    <path
       d="m -1969.915,123.96134 c -1.7414,0.0942 -3.4964,0.11552 -5.2391,0.15823 -1.7586,0.0427 -3.2298,0.25241 -4.8528,0.33673 l -1.2014,-0.003 c -0.2987,0.23981 0.026,0.16467 -0.6543,0.29911 -0.026,0.003 -0.5241,0.0278 -0.5691,0.0291 -3.5944,0.12324 -4.2742,-0.0942 -4.2956,-5.12213 l -0.1878,0 c 0,5.85576 0.5578,5.73385 6.3547,5.32058 0.9294,-0.0654 1.6266,-0.21613 2.3844,-0.36184 1.4498,-0.27626 6.9287,-0.0829 7.6736,-0.31421 0.5969,-0.18577 0.2521,0.10318 0.5866,-0.34284"
       style="fill:#ecd1d2;fill-opacity:1;fill-rule:evenodd;stroke:none"
       id="path110"
       inkscape:connector-curvature="0" />
    <path
       d="m -1980.0069,124.4563 c 1.623,-0.0841 3.0942,-0.29396 4.8528,-0.33673 1.7427,-0.0427 3.4977,-0.0641 5.2391,-0.15823 0.9211,0.10163 2.5465,-0.0592 3.4537,-0.28143 0.926,-0.22617 2.0743,-0.87319 2.8971,-0.84939 l 0,-0.52522 -1.0011,0.13096 c -0.4611,0.47472 -0.892,0.50366 -1.6284,0.71979 -1.3063,0.3808 -4.4322,0.56026 -5.7925,0.59788 -1.7365,0.0479 -6.841,-0.14692 -8.0269,0.70242"
       style="fill:#c37e80;fill-opacity:1;fill-rule:evenodd;stroke:none"
       id="path112"
       inkscape:connector-curvature="0" />
    <path
       d="m -1981.2083,124.45372 c -2.9571,-0.22487 -5.0391,0.99253 -5.0854,-2.73763 l -0.08,-2.05644 -0.353,0 c 0.026,5.02791 0.7011,5.24532 4.2956,5.12213 0.044,-0.001 0.5562,-0.0263 0.5688,-0.0291 0.6698,-0.13456 0.3559,-0.0592 0.6546,-0.2991"
       style="fill:#c37e80;fill-opacity:1;fill-rule:evenodd;stroke:none"
       id="path114"
       inkscape:connector-curvature="0" />
    <path
       d="m -1963.1473,122.34068 c 2.2616,0.12067 5.1814,-0.36825 7.405,-0.58051 0.8279,-0.12531 0.1003,0.0756 0.416,-0.32548 l -6.0192,0.47888 c -2.3267,0.11552 -1.5139,0.0852 -1.8018,0.42711"
       style="fill:#b44e51;fill-opacity:1;fill-rule:evenodd;stroke:none"
       id="path116"
       inkscape:connector-curvature="0" />
    <path
       d="m -1952.961,120.96607 c 1.0004,0.17599 2.1999,-0.32257 3.3421,-0.42582 0.7024,-0.0628 2.8531,-0.0103 3.3821,-0.51619 -1.0629,-0.28529 -2.4021,0.0324 -3.5265,0.10935 -0.8269,0.0576 -2.5832,0.26887 -3.1977,0.83266"
       style="fill:#d08f91;fill-opacity:1;fill-rule:evenodd;stroke:none"
       id="path118"
       inkscape:connector-curvature="0" />
    <path
       d="m -1963.1473,122.34068 -0.4107,-0.0355 0,0.52522 5.9649,-0.46861 c 1.4334,-0.14821 1.3758,-0.089 1.8569,-0.60174 -2.2235,0.21227 -5.1433,0.70113 -7.405,0.58051"
       style="fill:#e2b9ba;fill-opacity:1;fill-rule:evenodd;stroke:none"
       id="path120"
       inkscape:connector-curvature="0" />
    <path
       d="m -1954.8379,121.5241 c 0.3859,-0.0515 0.7353,-0.10189 1.0893,-0.1922 0.034,-0.008 0.4246,-0.12685 0.4362,-0.132 0.3152,-0.14074 0.2495,-0.14434 0.3514,-0.23388 -0.4845,-0.13662 -0.3375,-0.21356 -1.0564,-0.0286 -1.1923,0.30778 -0.564,0.19323 -0.8205,0.58664"
       style="fill:#c47275;fill-opacity:1;fill-rule:evenodd;stroke:none"
       id="path122"
       inkscape:connector-curvature="0" />
    <path
       d="m -1946.2368,120.02406 c 0.5993,0.11038 0.3667,0.14305 1.0351,-0.0154 0.026,-0.003 0.4611,-0.13817 0.4611,-0.13817 0.3669,-0.14306 0.2444,-0.10678 0.4034,-0.21098 l -1.3958,0 c -0.7639,0.28014 -0.328,0.18345 -0.5038,0.36441"
       style="fill:#d08f91;fill-opacity:1;fill-rule:evenodd;stroke:none"
       id="path124"
       inkscape:connector-curvature="0" />
    <path
       d="m -1798.7727,142.16666 0.5756,0.36052 c 0.026,-0.76384 0.2109,-1.19223 -0.2895,-1.50485 l 0.1544,1.02373 c -0.2573,0.21613 0,0.0921 -0.4405,0.12067"
       style="fill:#828384;fill-opacity:1;fill-rule:evenodd;stroke:none"
       id="path126"
       inkscape:connector-curvature="0" />
    <path
       d="m -2102.0882,160.07192 0.3528,0.30039 c 0.026,-0.21484 0.062,-0.65191 0.049,-0.79924 -0.075,-0.83781 0.034,-0.42068 -0.2766,-0.69467 0.08,0.49882 0.2602,1.01534 -0.126,1.19352"
       style="fill:#828384;fill-opacity:1;fill-rule:evenodd;stroke:none"
       id="path128"
       inkscape:connector-curvature="0" />
    <path
       d="m -468.16404,191.94009 0.36665,-0.0967 -0.0926,0.5377 c 0.27968,-0.28015 0.10549,0.1307 0.24958,-0.348 0.0875,-0.29398 0.0386,-0.25369 0.0463,-0.49751 -0.68827,0.23106 -0.34092,0.13071 -0.5694,0.40455"
       style="fill:#5e5f5f;fill-opacity:1;fill-rule:evenodd;stroke:none"
       id="path130"
       inkscape:connector-curvature="0" />
    <path
       d="m -2162.239,174.51495 0.1338,-0.38211 -0.6571,0 c 0.2213,0.33546 -0.3026,0.13199 0.5228,0.38211"
       style="fill:#afb0b1;fill-opacity:1;fill-rule:evenodd;stroke:none"
       id="path132"
       inkscape:connector-curvature="0" />
    <path
       d="m -1713.18,199.01196 c -0.041,-0.0388 -0.1003,-0.0828 -0.1312,-0.11063 l -0.247,-0.2097 c -0.026,-0.0679 -0.077,-0.0641 -0.1158,-0.0993 l 0.1132,0.47991 c 0.8139,0.26383 0.1544,0.0829 0.3829,-0.0602"
       style="fill:#8d8e8e;fill-opacity:1;fill-rule:evenodd;stroke:none"
       id="path134"
       inkscape:connector-curvature="0" />
    <path
       d="m -1306.3266,174.51718 0.2367,-0.37693 -0.5179,-9.6e-4 c 0.1441,0.76739 -0.026,0.0793 0.2799,0.37789"
       style="fill:#b5b5b6;fill-opacity:1;fill-rule:evenodd;stroke:none"
       id="path136"
       inkscape:connector-curvature="0" />
    <path
       d="m -587.08981,174.5159 0.23156,-0.37661 -0.51459,0 c 0.14151,0.76127 -0.0257,0.0793 0.28303,0.37661"
       style="fill:#b5b5b6;fill-opacity:1;fill-rule:evenodd;stroke:none"
       id="path138"
       inkscape:connector-curvature="0" />
    <path
       d="m -1654.6707,158.27535 c 0.2161,0.22745 -0.3183,0.27273 0.3537,0.15077 0.103,-0.94366 0.039,-0.23491 -0.1672,-0.51266 0.1132,0.70242 0.1003,0.24623 -0.1853,0.36181"
       style="fill:#6c6d6f;fill-opacity:1;fill-rule:evenodd;stroke:none"
       id="path140"
       inkscape:connector-curvature="0" />
    <path
       d="m -1422.4573,198.23179 0.373,-0.20738 0.09,-0.52262 c -0.1904,0.19837 -0.075,0.0414 -0.2547,0.32162 -0.041,0.0615 -0.157,0.31282 -0.2084,0.4083"
       style="fill:#868788;fill-opacity:1;fill-rule:evenodd;stroke:none"
       id="path142"
       inkscape:connector-curvature="0" />
    <path
       d="m -1602.269,159.42001 -0.126,-0.56541 -0.325,0.26275 0.4503,0.30266"
       style="fill:#797a7b;fill-opacity:1;fill-rule:evenodd;stroke:none"
       id="path144"
       inkscape:connector-curvature="0" />
    <path
       d="m -1925.0024,191.78934 0.2702,-0.26638 c -0.9939,-0.23105 -0.1106,-0.098 -0.5017,0.17702 l 0.2315,0.0893"
       style="fill:#aaabac;fill-opacity:1;fill-rule:evenodd;stroke:none"
       id="path146"
       inkscape:connector-curvature="0" />
    <path
       d="m -1773.6413,174.54742 c 0.1673,-0.30392 -0.059,-0.12582 0.2926,-0.43836 l -0.5211,0.0803 0.229,0.35795"
       style="fill:#a7a8a9;fill-opacity:1;fill-rule:evenodd;stroke:none"
       id="path148"
       inkscape:connector-curvature="0" />
    <path
       d="m -941.98835,191.79938 0.26039,-0.29901 c -0.86838,-0.0702 -0.11322,-0.0692 -0.44384,0.20867 l 0.18268,0.0903"
       style="fill:#9fa0a1;fill-opacity:1;fill-rule:evenodd;stroke:none"
       id="path150"
       inkscape:connector-curvature="0" />
    <path
       d="m -1928.0418,158.21007 0.1955,-0.80405 c 0,-0.0363 -0.051,-0.0916 -0.062,-0.11939 -0.026,-0.0257 -0.049,-0.0718 -0.072,-0.10678 l -0.064,1.03017"
       style="fill:#868788;fill-opacity:1;fill-rule:evenodd;stroke:none"
       id="path152"
       inkscape:connector-curvature="0" />
    <path
       d="m -1364.9194,153.65464 c -0.1647,-0.52394 0.1029,-0.2236 -0.3636,-0.47119 l 0.3636,0.47119"
       style="fill:#979899;fill-opacity:1;fill-rule:evenodd;stroke:none"
       id="path154"
       inkscape:connector-curvature="0" />
    <path
       d="m -1101.8886,153.43496 -0.4083,-0.41971 0.4083,0.41971"
       style="fill:#727375;fill-opacity:1;fill-rule:evenodd;stroke:none"
       id="path156"
       inkscape:connector-curvature="0" />
  </g>
</svg>
