<?xml version="1.0" encoding="UTF-8" standalone="no"?>
<svg
   xmlns:dc="http://purl.org/dc/elements/1.1/"
   xmlns:cc="http://creativecommons.org/ns#"
   xmlns:rdf="http://www.w3.org/1999/02/22-rdf-syntax-ns#"
   xmlns:svg="http://www.w3.org/2000/svg"
   xmlns="http://www.w3.org/2000/svg"
   xmlns:sodipodi="http://sodipodi.sourceforge.net/DTD/sodipodi-0.dtd"
   xmlns:inkscape="http://www.inkscape.org/namespaces/inkscape"
   version="1.2"
   id="Layer_1"
   x="0px"
   y="0px"
   viewBox="0 0 251.6 40.7"
   xml:space="preserve"
   inkscape:version="0.91 r13725"
   sodipodi:docname="logo-extended.svg"><metadata
     id="metadata136"><rdf:RDF><cc:Work
         rdf:about=""><dc:format>image/svg+xml</dc:format><dc:type
           rdf:resource="http://purl.org/dc/dcmitype/StillImage" /></cc:Work></rdf:RDF></metadata><defs
     id="defs134" /><sodipodi:namedview
     pagecolor="#ffffff"
     bordercolor="#666666"
     borderopacity="1"
     objecttolerance="10"
     gridtolerance="10"
     guidetolerance="10"
     inkscape:pageopacity="0"
     inkscape:pageshadow="2"
     inkscape:window-width="1348"
     inkscape:window-height="806"
     id="namedview132"
     showgrid="false"
     inkscape:zoom="2.7623211"
     inkscape:cx="125.8"
     inkscape:cy="20.35"
     inkscape:window-x="543"
     inkscape:window-y="195"
     inkscape:window-maximized="0"
     inkscape:current-layer="Layer_1" /><path
     fill="#951B1E"
     d="M42.8,21.6c0-7.3,5.2-12.7,12.6-12.7c7.3,0,12.6,5.4,12.6,12.7s-5.2,12.7-12.6,12.7  C48,34.3,42.8,29,42.8,21.6z M63.5,21.6c0-5.1-3.2-8.9-8.1-8.9c-5,0-8.1,3.8-8.1,8.9c0,5,3.2,8.9,8.1,8.9  C60.3,30.5,63.5,26.7,63.5,21.6z"
     id="path3"
     style="fill:#808080" /><path
     fill="#951B1E"
     d="M69.8,21.6c0-7.6,5.6-12.7,12.9-12.7c4.9,0,8,2.5,9.8,5.5l-3.6,1.9c-1.2-2.1-3.6-3.6-6.2-3.6  c-4.9,0-8.5,3.7-8.5,8.9c0,5.1,3.6,8.9,8.5,8.9c2.6,0,5-1.5,6.2-3.6l3.7,1.8c-1.9,2.9-4.9,5.6-9.9,5.6  C75.4,34.3,69.8,29.2,69.8,21.6z"
     id="path5"
     style="fill:#808080" /><path
     fill="#951B1E"
     d="M92.6,21.6c0-7.6,5.6-12.7,12.9-12.7c4.9,0,8,2.5,9.8,5.5l-3.6,1.9c-1.2-2.1-3.6-3.6-6.2-3.6  c-4.9,0-8.5,3.7-8.5,8.9c0,5.1,3.6,8.9,8.5,8.9c2.6,0,5-1.5,6.2-3.6l3.7,1.8c-1.9,2.9-4.9,5.6-9.9,5.6  C98.2,34.3,92.6,29.2,92.6,21.6z"
     id="path7"
     style="fill:#808080" /><path
     fill="#951B1E"
     d="M131.6,33.9l-5.4-9.2h-4.3v9.2h-4.3V9.3h10.8c4.9,0,8.1,3.1,8.1,7.7c0,4.3-2.9,6.7-5.9,7.2l6,9.6H131.6z   M132,17c0-2.4-1.8-3.9-4.2-3.9h-5.9v7.8h5.9C130.2,20.9,132,19.4,132,17z"
     id="path9"
     style="fill:#808080" /><path
     fill="#951B1E"
     d="M138.8,33.9V9.3h10.8c5.2,0,8,3.5,8,7.7c0,4.2-2.9,7.7-8,7.7h-6.5v9.2H138.8z M153.2,17  c0-2.4-1.7-3.9-4.2-3.9h-5.9v7.8h5.9C151.4,20.9,153.2,19.4,153.2,17z"
     id="path11"
     style="fill:#808080" /><g
     id="g13"
     style="fill:#808080"><path
       fill="#951B1E"
       d="M7.3,19c1.3,3.2,2.5,6.6,3.4,9.9c2.6-0.9,5.3-1.9,7.8-3.2c-1.4-3.1-3.1-6.1-5-9C11.5,17.7,9.4,18.4,7.3,19z   "
       id="path15"
       style="fill:#808080" /><path
       fill="#951B1E"
       d="M0,33.5v7.2c2.6,0,6.9-0.8,11.7-2.4c-0.5-2.5-1.1-5-1.8-7.6C6.5,31.9,3.1,32.8,0,33.5z"
       id="path17"
       style="fill:#808080" /><path
       fill="#951B1E"
       d="M0.5,8.6C0.3,8.7,0.2,8.7,0,8.7v10.6c1.6-0.3,3.5-0.6,5.4-1.1C4,14.9,2.3,11.7,0.5,8.6z"
       id="path19"
       style="fill:#808080" /><path
       fill="#951B1E"
       d="M18.8,12.5c-2.6-3-5.5-5.8-8.5-8.2C9.3,5,8.3,5.6,7.3,6.2c2.5,2.8,4.9,5.8,7,9   C15.9,14.4,17.4,13.5,18.8,12.5z"
       id="path21"
       style="fill:#808080" /><path
       fill="#951B1E"
       d="M6,19.4c-2.1,0.6-4.1,1-6,1.3v11.2c2.9-0.6,6.2-1.5,9.5-2.5C8.5,26,7.3,22.7,6,19.4z"
       id="path23"
       style="fill:#808080" /><path
       fill="#951B1E"
       d="M14.8,16.1c1.8,2.9,3.5,5.9,4.9,9c2-1.1,3.9-2.2,5.6-3.6c-1.7-2.9-3.7-5.7-5.9-8.3   C18,14.3,16.5,15.3,14.8,16.1z"
       id="path25"
       style="fill:#808080" /><path
       fill="#951B1E"
       d="M35.7,24.5c0.8-1,1.5-1.9,2-2.9c-1.1-2.9-2.6-5.5-4.3-7.9c-0.5,1.1-1.1,2.2-1.8,3.2   C33.1,19.3,34.5,21.9,35.7,24.5z"
       id="path27"
       style="fill:#808080" /><path
       fill="#951B1E"
       d="M23.1,9.4c-0.7,1.1-1.6,2-2.6,2.9c2.2,2.6,4.2,5.4,5.9,8.3c1.3-1.1,2.4-2.3,3.4-3.5   C27.9,14.3,25.6,11.7,23.1,9.4z"
       id="path29"
       style="fill:#808080" /><path
       fill="#951B1E"
       d="M30.8,15.9c0.7-1,1.3-2.1,1.7-3.2c-2.1-2.7-4.7-5.1-7.6-7.1c-0.3,0.9-0.6,1.7-1,2.5   C26.5,10.4,28.8,13.1,30.8,15.9z"
       id="path31"
       style="fill:#808080" /><path
       fill="#951B1E"
       d="M12.9,15.8c-2.1-3.2-4.5-6.2-7-8.9C4.6,7.4,3.3,7.9,2,8.2c1.8,3.1,3.4,6.3,4.8,9.6   C8.8,17.3,10.9,16.6,12.9,15.8z"
       id="path33"
       style="fill:#808080" /><path
       fill="#951B1E"
       d="M20.2,26.3c1,2.5,1.9,5,2.6,7.5c2.3-1.1,4.5-2.4,6.5-3.8c-0.9-2.6-2-5.1-3.4-7.5   C24.2,24,22.3,25.2,20.2,26.3z"
       id="path35"
       style="fill:#808080" /><path
       fill="#951B1E"
       d="M11.1,30.4c0.7,2.5,1.3,5.1,1.8,7.6c2.8-1,5.8-2.1,8.7-3.5c-0.7-2.5-1.5-5-2.6-7.5   C16.5,28.3,13.8,29.4,11.1,30.4z"
       id="path37"
       style="fill:#808080" /><path
       fill="#951B1E"
       d="M19.9,11.6c1-0.9,1.8-1.8,2.5-2.8c-3-2.7-6.3-5.2-9.8-7.2c-0.4,0.6-0.8,1.2-1.3,1.7   C14.4,5.8,17.3,8.5,19.9,11.6z"
       id="path39"
       style="fill:#808080" /><path
       fill="#951B1E"
       d="M23.2,7.4c0.3-0.5,0.5-1.1,0.6-1.7c0.1-0.2,0.3-0.5,0.5-0.6C21.1,3,17.4,1.2,13.4,0c0,0,0,0.1,0,0.1   C16.9,2.2,20.2,4.6,23.2,7.4z"
       id="path41"
       style="fill:#808080" /><path
       fill="#951B1E"
       d="M27,21.7c1.4,2.5,2.5,5,3.4,7.6c1.6-1.1,3-2.4,4.2-3.6c-1.1-2.7-2.5-5.2-4.1-7.6   C29.5,19.4,28.3,20.6,27,21.7z"
       id="path43"
       style="fill:#808080" /></g><g
     id="logotext"
     style="fill:#4d4d4d"><path
       d="M163.1,12.7v-0.1c0-2,1.3-3.4,3.1-3.4c1.8,0,3,1.4,3,3.4v0.1c0,2-1.3,3.4-3.1,3.4C164.4,16.1,163.1,14.7,163.1,12.7z   M167.8,12.7L167.8,12.7c0-1.4-0.7-2.2-1.6-2.2c-0.9,0-1.6,0.8-1.6,2.2v0.1c0,1.3,0.7,2.2,1.6,2.2C167.1,14.8,167.8,14,167.8,12.7z"
       id="path46"
       style="fill:#4d4d4d" /><path
       d="M170.1,9.2h2.5c0.8,0,1.4,0.2,1.8,0.6c0.4,0.4,0.6,0.9,0.6,1.6v0c0,1-0.5,1.7-1.3,2l1.4,2.5h-1.6l-1.2-2.2h-0.9V16h-1.4V9.2  z M172.5,12.5c0.7,0,1.1-0.4,1.1-1v0c0-0.7-0.4-1-1.1-1h-1v2H172.5z"
       id="path48"
       style="fill:#4d4d4d" /><path
       d="M175.7,12.7L175.7,12.7c0-2.1,1.3-3.5,3.2-3.5c0.9,0,1.6,0.3,2.2,0.8l-0.8,1.1c-0.4-0.3-0.8-0.6-1.4-0.6  c-1,0-1.7,0.9-1.7,2.1v0.1c0,1.4,0.8,2.2,1.8,2.2c0.4,0,0.8-0.1,1-0.3v-1.2h-1.2v-1.2h2.6v3.1c-0.6,0.5-1.4,0.8-2.4,0.8  C177,16.1,175.7,14.8,175.7,12.7z"
       id="path50"
       style="fill:#4d4d4d" /><path
       d="M184.1,9.2h1.3l2.4,6.8h-1.4l-0.5-1.5h-2.3L183,16h-1.4L184.1,9.2z M185.4,13.3l-0.7-2.2l-0.7,2.2H185.4z"
       id="path52"
       style="fill:#4d4d4d" /><path
       d="M188.4,9.2h1.3l2.6,3.9V9.2h1.4V16h-1.2l-2.7-4.1V16h-1.4V9.2z"
       id="path54"
       style="fill:#4d4d4d" /><path
       d="M194.8,9.2h1.4V16h-1.4V9.2z"
       id="path56"
       style="fill:#4d4d4d" /><path
       d="M197.2,14.9l3.1-4.4h-3V9.2h4.7v1.1l-3.1,4.4h3.1V16h-4.8V14.9z"
       id="path58"
       style="fill:#4d4d4d" /><path
       d="M202.9,9.2h4.3v1.3h-3V12h2.6v1.3h-2.6v1.5h3V16h-4.4V9.2z"
       id="path60"
       style="fill:#4d4d4d" /><path
       d="M208.1,9.2h2.2c2,0,3.2,1.3,3.2,3.3v0.1c0,2-1.3,3.3-3.2,3.3h-2.2V9.2z M209.5,10.5v4.2h0.8c1.1,0,1.8-0.7,1.8-2.1v0  c0-1.3-0.7-2.1-1.8-2.1H209.5z"
       id="path62"
       style="fill:#4d4d4d" /><path
       d="M216.1,12.7L216.1,12.7c0-2.1,1.3-3.5,3.1-3.5c1,0,1.6,0.4,2.2,0.9l-0.8,1.1c-0.4-0.4-0.8-0.7-1.4-0.7  c-0.9,0-1.6,0.8-1.6,2.1v0c0,1.3,0.7,2.2,1.6,2.2c0.5,0,0.9-0.3,1.4-0.7l0.8,1c-0.6,0.6-1.3,1-2.3,1  C217.3,16.1,216.1,14.7,216.1,12.7z"
       id="path64"
       style="fill:#4d4d4d" /><path
       d="M222,9.2h2.5c0.8,0,1.4,0.2,1.8,0.6c0.4,0.4,0.6,0.9,0.6,1.6v0c0,1-0.5,1.7-1.3,2l1.4,2.5h-1.6l-1.2-2.2h-0.9V16H222V9.2z   M224.5,12.5c0.7,0,1.1-0.4,1.1-1v0c0-0.7-0.4-1-1.1-1h-1v2H224.5z"
       id="path66"
       style="fill:#4d4d4d" /><path
       d="M227.9,9.2h1.4V16h-1.4V9.2z"
       id="path68"
       style="fill:#4d4d4d" /><path
       d="M230.4,9.2h1.5l1.5,2.7l1.5-2.7h1.5V16H235v-4.3l-1.6,2.8h0l-1.6-2.8V16h-1.4V9.2z"
       id="path70"
       style="fill:#4d4d4d" /><path
       d="M237.5,9.2h4.3v1.3h-3V12h2.6v1.3h-2.6v1.5h3V16h-4.4V9.2z"
       id="path72"
       style="fill:#4d4d4d" /><path
       d="M165.3,18.2h1.3l2.4,6.8h-1.4l-0.5-1.5h-2.3l-0.5,1.5h-1.4L165.3,18.2z M166.7,22.3l-0.7-2.2l-0.7,2.2H166.7z"
       id="path74"
       style="fill:#4d4d4d" /><path
       d="M169.6,18.3h1.3l2.6,3.9v-3.9h1.4V25h-1.2l-2.7-4.1V25h-1.4V18.3z"
       id="path76"
       style="fill:#4d4d4d" /><path
       d="M176,18.3h2.2c2,0,3.2,1.3,3.2,3.3v0.1c0,2-1.3,3.3-3.2,3.3H176V18.3z M177.4,19.5v4.2h0.8c1.1,0,1.8-0.7,1.8-2.1v0  c0-1.3-0.7-2.1-1.8-2.1H177.4z"
       id="path78"
       style="fill:#4d4d4d" /><path
       d="M183.9,21.7L183.9,21.7c0-2.1,1.3-3.5,3.1-3.5c1,0,1.6,0.4,2.2,0.9l-0.8,1.1c-0.4-0.4-0.8-0.7-1.4-0.7  c-0.9,0-1.6,0.8-1.6,2.1v0c0,1.3,0.7,2.2,1.6,2.2c0.5,0,0.9-0.3,1.4-0.7l0.8,1c-0.6,0.6-1.3,1-2.3,1  C185.1,25.1,183.9,23.8,183.9,21.7z"
       id="path80"
       style="fill:#4d4d4d" /><path
       d="M189.4,21.7v-0.1c0-2,1.3-3.4,3.1-3.4c1.8,0,3,1.4,3,3.4v0.1c0,2-1.3,3.4-3.1,3.4C190.7,25.1,189.4,23.7,189.4,21.7z   M194.1,21.7L194.1,21.7c0-1.4-0.7-2.2-1.6-2.2c-0.9,0-1.6,0.8-1.6,2.2v0.1c0,1.3,0.7,2.2,1.6,2.2C193.4,23.8,194.1,23,194.1,21.7z"
       id="path82"
       style="fill:#4d4d4d" /><path
       d="M196.4,18.3h2.5c0.8,0,1.4,0.2,1.8,0.6c0.4,0.4,0.6,0.9,0.6,1.6v0c0,1-0.5,1.7-1.3,2l1.4,2.5h-1.6l-1.2-2.2h-0.9V25h-1.4  V18.3z M198.8,21.6c0.7,0,1.1-0.4,1.1-1v0c0-0.7-0.4-1-1.1-1h-1v2H198.8z"
       id="path84"
       style="fill:#4d4d4d" /><path
       d="M202.2,18.3h2.5c0.8,0,1.4,0.2,1.8,0.6c0.4,0.4,0.6,0.9,0.6,1.6v0c0,1-0.5,1.7-1.3,2l1.4,2.5h-1.6l-1.2-2.2h-0.9V25h-1.4  V18.3z M204.6,21.6c0.7,0,1.1-0.4,1.1-1v0c0-0.7-0.4-1-1.1-1h-1v2H204.6z"
       id="path86"
       style="fill:#4d4d4d" /><path
       d="M207.9,22.4v-4.1h1.4v4.1c0,1,0.5,1.4,1.2,1.4c0.7,0,1.2-0.5,1.2-1.4v-4.2h1.4v4.1c0,1.9-1,2.8-2.6,2.8  C208.9,25.1,207.9,24.2,207.9,22.4z"
       id="path88"
       style="fill:#4d4d4d" /><path
       d="M214.1,18.3h2.2c1.5,0,2.5,0.9,2.5,2.3v0c0,1.6-1.1,2.3-2.5,2.4h-0.8V25h-1.4V18.3z M216.3,21.7c0.7,0,1.1-0.5,1.1-1.1v0  c0-0.7-0.4-1.1-1.1-1.1h-0.8v2.2H216.3z"
       id="path90"
       style="fill:#4d4d4d" /><path
       d="M220.7,19.6H219v-1.3h4.8v1.3h-1.7V25h-1.4V19.6z"
       id="path92"
       style="fill:#4d4d4d" /><path
       d="M224.6,18.3h1.4V25h-1.4V18.3z"
       id="path94"
       style="fill:#4d4d4d" /><path
       d="M226.9,21.7v-0.1c0-2,1.3-3.4,3.1-3.4c1.8,0,3,1.4,3,3.4v0.1c0,2-1.3,3.4-3.1,3.4C228.1,25.1,226.9,23.7,226.9,21.7z   M231.5,21.7L231.5,21.7c0-1.4-0.7-2.2-1.6-2.2c-0.9,0-1.6,0.8-1.6,2.2v0.1c0,1.3,0.7,2.2,1.6,2.2C230.9,23.8,231.5,23,231.5,21.7z"
       id="path96"
       style="fill:#4d4d4d" /><path
       d="M233.8,18.3h1.3l2.6,3.9v-3.9h1.4V25h-1.2l-2.7-4.1V25h-1.4V18.3z"
       id="path98"
       style="fill:#4d4d4d" /><path
       d="M163.1,27h2.5c0.8,0,1.4,0.2,1.8,0.6c0.4,0.4,0.6,0.9,0.6,1.6v0c0,1-0.5,1.7-1.3,2l1.4,2.5h-1.6l-1.2-2.2h-0.9v2.2h-1.4V27z   M165.5,30.3c0.7,0,1.1-0.4,1.1-1v0c0-0.7-0.4-1-1.1-1h-1v2H165.5z"
       id="path100"
       style="fill:#4d4d4d" /><path
       d="M168.9,27h4.3v1.3h-3v1.5h2.6V31h-2.6v1.5h3v1.3h-4.4V27z"
       id="path102"
       style="fill:#4d4d4d" /><path
       d="M174.1,27h2.2c1.5,0,2.5,0.9,2.5,2.3v0c0,1.6-1.1,2.3-2.5,2.4h-0.8v2.1h-1.4V27z M176.3,30.5c0.7,0,1.1-0.5,1.1-1.1v0  c0-0.7-0.4-1.1-1.1-1.1h-0.8v2.2H176.3z"
       id="path104"
       style="fill:#4d4d4d" /><path
       d="M179.3,30.5v-0.1c0-2,1.3-3.4,3.1-3.4c1.8,0,3,1.4,3,3.4v0.1c0,2-1.3,3.4-3.1,3.4C180.5,33.9,179.3,32.5,179.3,30.5z   M183.9,30.5L183.9,30.5c0-1.4-0.7-2.2-1.6-2.2c-0.9,0-1.6,0.8-1.6,2.2v0.1c0,1.3,0.7,2.2,1.6,2.2C183.3,32.6,183.9,31.8,183.9,30.5  z"
       id="path106"
       style="fill:#4d4d4d" /><path
       d="M186.3,27h2.5c0.8,0,1.4,0.2,1.8,0.6c0.4,0.4,0.6,0.9,0.6,1.6v0c0,1-0.5,1.7-1.3,2l1.4,2.5h-1.6l-1.2-2.2h-0.9v2.2h-1.4V27z   M188.7,30.3c0.7,0,1.1-0.4,1.1-1v0c0-0.7-0.4-1-1.1-1h-1v2H188.7z"
       id="path108"
       style="fill:#4d4d4d" /><path
       d="M193.3,28.3h-1.7V27h4.8v1.3h-1.7v5.5h-1.4V28.3z"
       id="path110"
       style="fill:#4d4d4d" /><path
       d="M197.2,27h1.4v6.7h-1.4V27z"
       id="path112"
       style="fill:#4d4d4d" /><path
       d="M199.7,27h1.3l2.6,3.9V27h1.4v6.7h-1.2l-2.7-4.1v4.1h-1.4V27z"
       id="path114"
       style="fill:#4d4d4d" /><path
       d="M205.8,30.5L205.8,30.5c0-2.1,1.3-3.5,3.2-3.5c0.9,0,1.6,0.3,2.2,0.8l-0.8,1.1c-0.4-0.3-0.8-0.6-1.4-0.6  c-1,0-1.7,0.9-1.7,2.1v0.1c0,1.4,0.8,2.2,1.8,2.2c0.4,0,0.8-0.1,1-0.3v-1.2h-1.2v-1.2h2.6V33c-0.6,0.5-1.4,0.8-2.4,0.8  C207.1,33.9,205.8,32.6,205.8,30.5z"
       id="path116"
       style="fill:#4d4d4d" /><path
       d="M214.2,27h2.2c1.5,0,2.5,0.9,2.5,2.3v0c0,1.6-1.1,2.3-2.5,2.4h-0.8v2.1h-1.4V27z M216.4,30.5c0.7,0,1.1-0.5,1.1-1.1v0  c0-0.7-0.4-1.1-1.1-1.1h-0.8v2.2H216.4z"
       id="path118"
       style="fill:#4d4d4d" /><path
       d="M219.6,27h2.5c0.8,0,1.4,0.2,1.8,0.6c0.4,0.4,0.6,0.9,0.6,1.6v0c0,1-0.5,1.7-1.3,2l1.4,2.5h-1.6l-1.2-2.2H221v2.2h-1.4V27z   M222,30.3c0.7,0,1.1-0.4,1.1-1v0c0-0.7-0.4-1-1.1-1h-1v2H222z"
       id="path120"
       style="fill:#4d4d4d" /><path
       d="M225.2,30.5v-0.1c0-2,1.3-3.4,3.1-3.4c1.8,0,3,1.4,3,3.4v0.1c0,2-1.3,3.4-3.1,3.4C226.4,33.9,225.2,32.5,225.2,30.5z   M229.8,30.5L229.8,30.5c0-1.4-0.7-2.2-1.6-2.2c-0.9,0-1.6,0.8-1.6,2.2v0.1c0,1.3,0.7,2.2,1.6,2.2C229.1,32.6,229.8,31.8,229.8,30.5  z"
       id="path122"
       style="fill:#4d4d4d" /><path
       d="M231.3,33l0.8-1c0.3,0.3,0.6,0.5,1,0.5c0.5,0,0.8-0.3,0.8-1V27h1.4v4.6c0,0.8-0.2,1.3-0.6,1.7c-0.4,0.4-0.9,0.6-1.6,0.6  C232.3,33.9,231.7,33.5,231.3,33z"
       id="path124"
       style="fill:#4d4d4d" /><path
       d="M236.3,27h4.3v1.3h-3v1.5h2.6V31h-2.6v1.5h3v1.3h-4.4V27z"
       id="path126"
       style="fill:#4d4d4d" /><path
       d="M241.2,30.5L241.2,30.5c0-2.1,1.3-3.5,3.1-3.5c1,0,1.6,0.4,2.2,0.9l-0.8,1.1c-0.4-0.4-0.8-0.7-1.4-0.7  c-0.9,0-1.6,0.8-1.6,2.1v0c0,1.3,0.7,2.2,1.6,2.2c0.5,0,0.9-0.3,1.4-0.7l0.8,1c-0.6,0.6-1.3,1-2.3,1  C242.4,33.9,241.2,32.5,241.2,30.5z"
       id="path128"
       style="fill:#4d4d4d" /><path
       d="M248.5,28.3h-1.7V27h4.8v1.3h-1.7v5.5h-1.4V28.3z"
       id="path130"
       style="fill:#4d4d4d" /></g></svg>