<?xml version="1.0" encoding="UTF-8" standalone="no"?>
<!-- Created with Inkscape (http://www.inkscape.org/) -->

<svg
   xmlns:dc="http://purl.org/dc/elements/1.1/"
   xmlns:cc="http://creativecommons.org/ns#"
   xmlns:rdf="http://www.w3.org/1999/02/22-rdf-syntax-ns#"
   xmlns:svg="http://www.w3.org/2000/svg"
   xmlns="http://www.w3.org/2000/svg"
   xmlns:sodipodi="http://sodipodi.sourceforge.net/DTD/sodipodi-0.dtd"
   xmlns:inkscape="http://www.inkscape.org/namespaces/inkscape"
   width="370.78119"
   height="400"
   viewBox="0 0 370.78119 399.99997"
   id="svg4293"
   version="1.1"
   inkscape:version="0.91 r13725"
   sodipodi:docname="logo.svg">
  <defs
     id="defs4295" />
  <sodipodi:namedview
     id="base"
     pagecolor="#ffffff"
     bordercolor="#666666"
     borderopacity="1.0"
     inkscape:pageopacity="0.0"
     inkscape:pageshadow="2"
     inkscape:zoom="0.35"
     inkscape:cx="-401.20421"
     inkscape:cy="109.68878"
     inkscape:document-units="px"
     inkscape:current-layer="layer1"
     showgrid="false"
     fit-margin-top="0"
     fit-margin-left="0"
     fit-margin-right="0"
     fit-margin-bottom="0"
     units="px"
     inkscape:window-width="2560"
     inkscape:window-height="1314"
     inkscape:window-x="0"
     inkscape:window-y="60"
     inkscape:window-maximized="1" />
  <metadata
     id="metadata4298">
    <rdf:RDF>
      <cc:Work
         rdf:about="">
        <dc:format>image/svg+xml</dc:format>
        <dc:type
           rdf:resource="http://purl.org/dc/dcmitype/StillImage" />
        <dc:title></dc:title>
      </cc:Work>
    </rdf:RDF>
  </metadata>
  <g
     inkscape:label="Layer 1"
     inkscape:groupmode="layer"
     id="layer1"
     transform="translate(105.22436,-242.05101)">
    <path
       d="m -104.8231,325.88151 c 1.93152,-0.41722 3.85242,-0.84672 5.760228,-1.2844 l 1.227152,1.98796 c 18.734851,30.31584 34.505325,61.08368 47.90168,91.82823 -17.270867,4.35718 -35.626939,8.21288 -55.02035,11.5859 l 0.1312,-104.11769 z m 19.116498,-4.57317 c 14.133053,-3.72643 27.508544,-8.10327 39.872868,-13.34727 l 1.752774,1.95527 c 25.590106,28.64569 47.3760544,56.53792 66.204579,84.6727 -17.850899,7.69055 -37.628416,14.48935 -59.228248,20.44306 -13.564472,-31.32743 -29.560333,-62.7252 -48.601973,-93.72376 z m 52.29364,-19.09031 c 11.179309,-5.6326 21.344176,-12.13649 30.2778052,-19.69571 l 0.7567408,0.62994 c 31.153171,25.99097 58.12586,51.92467 81.666629,78.76237 -7.784202,5.99705 -16.316964,11.64848 -25.569652,16.96774 -6.18073,3.5567 -12.688699,6.96163 -19.511636,10.22296 -19.208941,-28.90504 -41.4571138,-57.52168 -67.619887,-86.8873 z M 6.4611328,273.48234 C 11.69696,267.97245 16.356027,261.9717 20.389251,255.43099 l 0.05726,0.037 c 35.681341,22.40362 66.769064,45.31855 94.089449,69.83284 -6.89248,10.10352 -15.290258,19.51572 -25.140154,28.26201 C 65.474625,326.26207 38.080616,299.89885 6.4611296,273.48247 Z m 20.1292992,-29.6356 c 0.269974,-0.59312 0.544035,-1.19034 0.809918,-1.79573 39.632755,12.23466 74.12376,28.24893 104.18069,47.87918 l -0.56859,1.77528 c -2.48293,7.72693 -5.66123,15.13072 -9.52265,22.22364 C 94.050786,289.52114 62.963068,266.68803 27.428982,244.3744 l -0.83855,-0.52766 z m 116.268078,53.76949 c 27.36538,19.43392 50.84479,42.08704 71.03545,67.82358 l -1.4194,2.81384 c -4.91677,9.71942 -10.45529,18.95821 -16.57467,27.74949 -11.55154,-16.04699 -23.98663,-31.26976 -37.44434,-45.85482 -8.57775,-9.29561 -17.56865,-18.3315 -27.00951,-27.15061 4.61817,-8.06235 8.43051,-16.52148 11.41247,-25.38148 z m 79.80953,79.48596 c 16.53379,22.91821 30.70731,48.10008 42.88878,75.46671 -5.42398,9.32793 -12.19374,18.70089 -20.207,28.0276 -12.44738,-26.33906 -26.15458,-50.57357 -41.47347,-73.17642 6.93747,-9.56968 13.21638,-19.66337 18.79169,-30.31789 z m 13.13456,113.96842 c -11.88696,12.3271 -25.94186,24.50939 -41.99704,36.33336 -9.98897,-25.748 -21.11919,-49.92973 -33.69745,-72.94979 12.96277,-11.07786 24.79246,-23.06011 35.34592,-36.06176 14.46398,21.74832 27.43899,45.04489 39.24827,70.32288 l 1.10035,2.35531 z m -53.00045,44.17238 c -18.7999,12.93783 -40.02954,25.36882 -63.42305,37.00751 -7.91101,-25.43755 -16.54603,-49.57799 -26.2773,-72.85205 l 0.650387,-0.34851 c 20.219293,-10.81568 38.994643,-22.78975 56.035613,-36.15256 12.10376,22.36189 22.81267,45.83885 32.4294,70.81659 l 0.58495,1.52902 z m -75.3591,42.78695 C 81.574797,590.22002 53.235883,601.43205 22.733101,611.31344 17.759066,587.18079 12.003747,562.29136 5.1153616,536.93197 32.051237,527.66128 57.63316,517.27346 81.415267,505.41922 c 9.526751,22.8859 17.98997,46.63937 25.745543,71.6875 l 0.28224,0.92322 z m -97.267752,37.24597 c -35.791786,10.95024 -74.410101,20.05934 -115.399658,26.7751 l 0.093,-74.03787 1.49875,-0.34975 c 33.308858,-7.83777 65.613911,-16.52678 96.2966756,-26.55464 6.7983936,25.08616 12.4759936,49.68639 17.3804894,73.52658 l 0.130896,0.64058 z m -115.289208,-60.74872 0.14208,-111.2069 1.11222,-0.19013 c 20.871301,-3.60289 40.598098,-7.76374 59.125152,-12.50625 5.870672,14.11873 11.260301,28.21947 16.217975,42.25518 6.606141,18.68821 12.44736,37.25045 17.666825,55.58278 -29.989016,9.81554 -61.615456,18.34956 -94.264092,26.06543 z M 124.2836,334.26701 c -7.33016,10.45938 -16.1329,20.19722 -26.359115,29.2425 7.866015,9.384 15.339335,18.88824 22.452705,28.55368 12.05467,16.38404 23.06627,33.23195 33.17795,50.73145 12.59462,-10.96126 24.02754,-22.82696 34.14332,-35.70873 -11.92786,-16.87816 -24.83745,-32.82455 -38.89238,-48.05343 -7.80874,-8.46405 -15.97335,-16.7072 -24.52248,-24.76547 z m -36.458536,37.60061 c -8.401866,6.50672 -17.605467,12.62325 -27.582172,18.36261 -6.000748,3.44827 -12.27965,6.75912 -18.840796,9.93702 6.683861,10.50275 12.987306,21.06112 18.943058,31.72542 10.115782,18.10205 19.237574,36.49781 27.573995,55.42903 20.072031,-10.758 38.646941,-22.68751 55.413861,-36.02168 -10.18122,-17.7777 -21.30736,-34.87143 -33.52974,-51.48415 -6.96201,-9.45924 -14.275811,-18.76184 -21.978206,-27.94825 z m -58.428555,33.83161 c -18.505376,8.11226 -38.990549,15.26572 -61.349165,21.50698 5.710323,13.80826 10.962512,27.59157 15.809742,41.30741 6.6225028,18.73811 12.488266,37.36253 17.7363636,55.76483 C 28.013923,515.16442 53.051812,504.97173 76.26125,493.36007 67.99028,474.52293 58.942117,456.23725 48.895873,438.25666 42.780592,427.31459 36.297165,416.47971 29.396509,405.69923"
       style="fill:#910306;fill-opacity:1;fill-rule:evenodd;stroke:none"
       id="path14"
       inkscape:connector-curvature="0" />
  </g>
</svg>
