<?xml version="1.0" encoding="UTF-8" standalone="no"?>
<!-- Generator: Adobe Illustrator 24.1.2, SVG Export Plug-In . SVG Version: 6.00 Build 0)  -->

<svg
   xmlns:dc="http://purl.org/dc/elements/1.1/"
   xmlns:cc="http://creativecommons.org/ns#"
   xmlns:rdf="http://www.w3.org/1999/02/22-rdf-syntax-ns#"
   xmlns:svg="http://www.w3.org/2000/svg"
   xmlns="http://www.w3.org/2000/svg"
   xmlns:sodipodi="http://sodipodi.sourceforge.net/DTD/sodipodi-0.dtd"
   xmlns:inkscape="http://www.inkscape.org/namespaces/inkscape"
   version="1.1"
   id="Layer_1"
   x="0px"
   y="0px"
   viewBox="0 0 166.3 45.2"
   style="enable-background:new 0 0 166.3 45.2;"
   xml:space="preserve"
   inkscape:version="0.91 r13725"
   sodipodi:docname="logo-id-white.svg"><metadata
     id="metadata59"><rdf:RDF><cc:Work
         rdf:about=""><dc:format>image/svg+xml</dc:format><dc:type
           rdf:resource="http://purl.org/dc/dcmitype/StillImage" /></cc:Work></rdf:RDF></metadata><defs
     id="defs57" /><sodipodi:namedview
     pagecolor="#ffffff"
     bordercolor="#666666"
     borderopacity="1"
     objecttolerance="10"
     gridtolerance="10"
     guidetolerance="10"
     inkscape:pageopacity="0"
     inkscape:pageshadow="2"
     inkscape:window-width="869"
     inkscape:window-height="482"
     id="namedview55"
     showgrid="false"
     inkscape:zoom="4.1791942"
     inkscape:cx="83.150002"
     inkscape:cy="22.6"
     inkscape:window-x="0"
     inkscape:window-y="60"
     inkscape:window-maximized="0"
     inkscape:current-layer="Layer_1" /><style
     type="text/css"
     id="style3">
	.st0{fill:#FFFFFF;}
</style><g
     id="g5"><path
       class="st0"
       d="M40.8,28.3c0-5.5,3.9-9.5,9.4-9.5c5.5,0,9.4,4,9.4,9.5s-3.9,9.5-9.4,9.5C44.7,37.8,40.8,33.7,40.8,28.3z    M56.2,28.3c0-3.8-2.4-6.6-6.1-6.6c-3.7,0-6.1,2.8-6.1,6.6c0,3.8,2.4,6.6,6.1,6.6C53.8,34.9,56.2,32,56.2,28.3z"
       id="path7" /><path
       class="st0"
       d="M60.9,28.3c0-5.7,4.2-9.5,9.6-9.5c3.7,0,6,1.9,7.3,4.1l-2.7,1.4c-0.9-1.5-2.7-2.7-4.6-2.7   c-3.6,0-6.3,2.7-6.3,6.6c0,3.8,2.7,6.6,6.3,6.6c2,0,3.7-1.2,4.6-2.7l2.7,1.4c-1.4,2.2-3.7,4.1-7.4,4.1   C65.1,37.8,60.9,33.9,60.9,28.3z"
       id="path9" /><path
       class="st0"
       d="M78,28.3c0-5.7,4.2-9.5,9.6-9.5c3.7,0,6,1.9,7.3,4.1l-2.7,1.4c-0.9-1.5-2.7-2.7-4.6-2.7   c-3.6,0-6.3,2.7-6.3,6.6c0,3.8,2.7,6.6,6.3,6.6c2,0,3.7-1.2,4.6-2.7l2.7,1.4c-1.4,2.2-3.7,4.1-7.4,4.1C82.2,37.8,78,33.9,78,28.3z"
       id="path11" /><path
       class="st0"
       d="M107,37.4l-4-6.8h-3.2v6.8h-3.2V19.1h8c3.6,0,6,2.3,6,5.7c0,3.2-2.1,5-4.4,5.4l4.5,7.2H107z M107.4,24.8   c0-1.8-1.3-2.9-3.1-2.9h-4.4v5.8h4.4C106,27.8,107.4,26.6,107.4,24.8z"
       id="path13" /><path
       class="st0"
       d="M112.4,37.4V19.1h8.1c3.8,0,6,2.6,6,5.7c0,3.1-2.1,5.7-6,5.7h-4.9v6.9H112.4z M123.2,24.8   c0-1.8-1.3-2.9-3.1-2.9h-4.4v5.8h4.4C121.9,27.7,123.2,26.6,123.2,24.8z"
       id="path15" /><g
       id="g17"><path
         class="st0"
         d="M14.3,21.3c1,2.4,1.9,4.9,2.6,7.4c2-0.7,3.9-1.4,5.8-2.4c-1-2.3-2.3-4.6-3.7-6.7    C17.5,20.2,15.9,20.8,14.3,21.3z"
         id="path19" /><path
         class="st0"
         d="M8.9,32v5.4c1.9,0,5.1-0.6,8.7-1.8c-0.4-1.9-0.8-3.8-1.3-5.6C13.7,30.9,11.2,31.5,8.9,32z"
         id="path21" /><path
         class="st0"
         d="M9.3,13.5c-0.1,0-0.3,0.1-0.4,0.1v7.9c1.2-0.2,2.6-0.5,4.1-0.8C11.9,18.2,10.6,15.8,9.3,13.5z"
         id="path23" /><path
         class="st0"
         d="M22.9,16.4c-2-2.2-4.1-4.3-6.4-6.1c-0.7,0.5-1.4,1-2.2,1.4c1.9,2.1,3.6,4.3,5.2,6.7    C20.7,17.8,21.9,17.1,22.9,16.4z"
         id="path25" /><path
         class="st0"
         d="M13.3,21.5c-1.6,0.4-3.1,0.7-4.4,0.9v8.3c2.2-0.5,4.6-1.1,7.1-1.9C15.2,26.4,14.3,24,13.3,21.5z"
         id="path27" /><path
         class="st0"
         d="M20,19.1c1.4,2.2,2.6,4.4,3.6,6.7c1.5-0.8,2.9-1.7,4.2-2.7C26.5,21,25,18.9,23.4,17    C22.3,17.8,21.2,18.5,20,19.1z"
         id="path29" /><path
         class="st0"
         d="M35.5,25.4c0.6-0.7,1.1-1.4,1.5-2.2c-0.8-2.2-1.9-4.1-3.2-5.9c-0.4,0.8-0.8,1.6-1.4,2.4    C33.6,21.5,34.7,23.4,35.5,25.4z"
         id="path31" /><path
         class="st0"
         d="M26.1,14c-0.5,0.8-1.2,1.5-1.9,2.2c1.6,2,3.1,4,4.4,6.2c1-0.8,1.8-1.7,2.6-2.6C29.7,17.7,28,15.8,26.1,14z"
         id="path33" /><path
         class="st0"
         d="M31.8,18.9c0.5-0.8,0.9-1.6,1.3-2.4c-1.6-2-3.5-3.8-5.7-5.3c-0.2,0.7-0.4,1.3-0.8,1.9    C28.6,14.8,30.4,16.8,31.8,18.9z"
         id="path35" /><path
         class="st0"
         d="M18.5,18.8c-1.6-2.4-3.4-4.6-5.3-6.7c-0.9,0.4-1.9,0.8-2.9,1c1.3,2.3,2.5,4.7,3.6,7.2    C15.5,20,17,19.5,18.5,18.8z"
         id="path37" /><path
         class="st0"
         d="M24,26.7c0.8,1.8,1.4,3.7,1.9,5.6c1.7-0.9,3.4-1.8,4.9-2.8c-0.7-1.9-1.5-3.8-2.5-5.6    C26.9,25,25.5,25.9,24,26.7z"
         id="path39" /><path
         class="st0"
         d="M17.2,29.7c0.5,1.9,1,3.8,1.3,5.7c2.1-0.7,4.4-1.6,6.5-2.6c-0.5-1.9-1.1-3.7-1.9-5.6    C21.2,28.2,19.2,29,17.2,29.7z"
         id="path41" /><path
         class="st0"
         d="M23.8,15.7c0.7-0.6,1.4-1.3,1.9-2.1c-2.2-2-4.7-3.9-7.3-5.4c-0.3,0.5-0.6,0.9-1,1.3    C19.6,11.3,21.8,13.4,23.8,15.7z"
         id="path43" /><path
         class="st0"
         d="M26.8,10.7c0,0.2-0.1,0.4-0.2,0.6c0,0,0,0,0,0c0,0.2-0.1,0.4-0.2,0.5c0,0.1,0,0.1-0.1,0.2    c-0.1,0.2-0.1,0.4-0.2,0.6c-2.3-2.1-4.8-3.9-7.4-5.4c0,0,0-0.1,0-0.1C21.8,8,24.5,9.2,26.8,10.7z"
         id="path45" /><path
         class="st0"
         d="M29.1,23.2c1,1.8,1.9,3.7,2.5,5.7c1.2-0.9,2.3-1.8,3.2-2.7c-0.8-2-1.9-3.9-3.1-5.7    C30.9,21.5,30,22.4,29.1,23.2z"
         id="path47" /></g></g><g
     id="g49"><path
       class="st0"
       d="M135.3,19.1h3.2v18.3h-3.2V19.1z"
       id="path51" /><path
       class="st0"
       d="M141.5,19.1h6.8c5.8,0,9.7,4,9.7,9.1v0.1c0,5.2-4,9.2-9.7,9.2h-6.8V19.1z M148.3,34.5c3.8,0,6.4-2.6,6.4-6.2   v-0.1c0-3.6-2.5-6.2-6.4-6.2h-3.6v12.5H148.3z"
       id="path53" /></g></svg>